<?xml version="1.0" encoding="UTF-8"?>
<svg id="Capa_1" xmlns="http://www.w3.org/2000/svg" version="1.1" viewBox="0 0 548.23 548.23">
  <!-- Generator: Adobe Illustrator 30.2.1, SVG Export Plug-In . SVG Version: 2.1.1 Build 1)  -->
  <defs>
    <style>
      .st0 {
        fill: #4c83c4;
      }

      .st1 {
        fill: #fff;
      }

      .st2 {
        fill: #868789;
      }

      .st3 {
        fill: #1a2442;
      }

      .st4 {
        fill: #1a2341;
      }

      .st5 {
        fill: #858788;
      }

      .st6 {
        fill: #192340;
      }
    </style>
  </defs>
  <path class="st2" d="M274.11,548.23c-73.22,0-142.05-28.51-193.83-80.29C28.51,416.17,0,347.33,0,274.11S28.51,132.06,80.29,80.29C132.06,28.51,200.9,0,274.11,0s142.05,28.51,193.83,80.29c51.77,51.77,80.29,120.61,80.29,193.83s-28.51,142.05-80.29,193.83c-51.77,51.77-120.61,80.29-193.83,80.29Z"/>
  <circle class="st3" cx="274.11" cy="274.11" r="258.64"/>
  <g>
    <g>
      <path class="st1" d="M63.68,248.26l7.79,3.77-1.36,7.49-30.2-15.57,1.72-9.49,33.77-4.12-1.41,7.78-8.65.98-1.66,9.16ZM59.74,239.17l-7.15.76c-2,.23-4.48.36-6.46.49l-.02.1c1.81.82,4.14,1.73,5.9,2.59l6.44,3.13,1.28-7.07Z"/>
      <path class="st5" d="M70.83,260.98l-32-16.5,1.98-10.89,35.79-4.36-1.77,9.78-8.65.98-1.4,7.72,7.79,3.77-1.72,9.51ZM41,243.42l28.4,14.64.99-5.48-7.79-3.77,1.92-10.59,8.65-.98,1.05-5.78-31.76,3.87-1.47,8.08ZM59.19,247.67l-7.59-3.68c-1.03-.51-2.29-1.04-3.51-1.55-.83-.35-1.64-.7-2.37-1.02l-.69-.31.27-1.49.77-.15,1.03-.07c1.75-.11,3.74-.24,5.39-.42l8.44-.9-1.74,9.6ZM50.01,241.14c.86.37,1.7.74,2.44,1.1l5.29,2.57.82-4.54-5.86.62c-.84.1-1.76.17-2.69.24Z"/>
    </g>
    <g>
      <path class="st1" d="M70.32,225.65c1.17-1.06,2.88-3.47,3.5-5.55.63-2.13.15-3.22-1.01-3.56-1.16-.34-1.92.19-3.57,2.57-2.95,4.21-6.02,5.26-8.69,4.42-4.21-1.24-6.34-5.79-4.69-11.38.78-2.64,2.07-4.82,3.18-6l4.49,2.68c-.85.85-2.17,2.58-2.74,4.52-.5,1.71-.1,2.89,1.06,3.23,1.06.31,1.88-.4,3.67-2.89,2.75-3.86,5.45-5.03,8.8-4.09,4.21,1.24,6.33,5.48,4.42,11.96-.87,2.96-2.3,5.4-3.73,6.84l-4.67-2.73Z"/>
      <path class="st5" d="M75.16,229.6l-6.46-3.78.97-.89c.98-.89,2.65-3.17,3.22-5.11.31-1.04.26-1.6.17-1.88-.06-.19-.16-.37-.52-.48-.44-.13-.81-.24-2.5,2.19-3.93,5.61-7.81,5.41-9.78,4.79-2.33-.69-4.17-2.32-5.14-4.6-.98-2.3-1.05-5.06-.18-7.98.87-2.96,2.32-5.24,3.4-6.39l.53-.57,6.23,3.72-.88.88c-.84.84-2,2.42-2.49,4.11-.19.65-.4,1.79.4,2.02.41.12.97-.25,2.61-2.53,2.92-4.1,6.05-5.52,9.84-4.46,2.45.72,4.22,2.31,5.14,4.59.93,2.32.92,5.28-.05,8.58-.87,2.94-2.31,5.59-3.97,7.25l-.53.53ZM71.87,225.43l2.94,1.72c1.22-1.45,2.31-3.59,2.98-5.89.85-2.87.89-5.4.12-7.3-.69-1.71-2.03-2.9-3.88-3.45-2.97-.83-5.28.28-7.73,3.72-1.67,2.32-2.9,3.8-4.73,3.26-1.34-.4-2.5-1.77-1.71-4.43.45-1.53,1.32-2.96,2.17-4.01l-2.78-1.66c-.84,1.1-1.81,2.84-2.46,5.02-.73,2.49-.7,4.79.11,6.67.75,1.76,2.11,2.98,3.92,3.51,3.25,1.02,5.94-1.64,7.63-4.05,1.46-2.09,2.65-3.53,4.64-2.94.91.27,1.54.87,1.82,1.75.26.8.21,1.79-.16,3.02-.51,1.73-1.73,3.7-2.88,5.06Z"/>
    </g>
    <g>
      <path class="st1" d="M79.96,182.01c7.98,3.28,9.31,10.45,6.91,16.29-2.62,6.38-8.83,9.56-15.88,6.66-7.05-2.9-9.64-9.39-6.76-16.39,2.75-6.69,9.18-9.26,15.73-6.56ZM73.69,197.88c3.75,1.54,7.2,1.13,8.39-1.76,1.08-2.63-.85-5.41-4.78-7.02-3.26-1.34-7.07-1.45-8.33,1.63-1.34,3.26,1.51,5.83,4.72,7.15Z"/>
      <path class="st5" d="M76.15,207.01c-1.79,0-3.65-.38-5.52-1.15-3.69-1.52-6.33-4-7.63-7.18-1.29-3.16-1.18-6.78.34-10.47,1.44-3.51,3.85-6.04,6.97-7.33,3.05-1.26,6.61-1.17,10.03.24,8.66,3.56,9.97,11.38,7.44,17.55-1.4,3.4-3.8,6-6.78,7.32-1.52.68-3.15,1.02-4.84,1.02ZM74.87,181.92c-1.33,0-2.62.25-3.84.75-2.63,1.08-4.67,3.25-5.91,6.27-1.32,3.21-1.44,6.32-.34,9,1.1,2.69,3.38,4.81,6.58,6.13,3.13,1.28,6.18,1.34,8.83.16,2.52-1.12,4.57-3.36,5.78-6.29,2.01-4.89,1.55-11.77-6.38-15.03h0c-1.6-.66-3.19-.99-4.72-.99ZM77.69,199.74c-1.32,0-2.8-.31-4.36-.96h0c-1.91-.78-3.49-1.9-4.46-3.15-1.26-1.62-1.53-3.45-.79-5.27.72-1.75,2.17-2.81,4.2-3.06,1.58-.2,3.5.12,5.4.91,4.46,1.83,6.59,5.16,5.3,8.28-.87,2.13-2.8,3.25-5.29,3.25ZM73.24,189.18c-.25,0-.49.01-.72.04-1.33.17-2.19.78-2.64,1.88-.48,1.17-.31,2.27.52,3.34.77.99,2.07,1.89,3.67,2.55h0c2.73,1.13,6.04,1.39,7.12-1.24.86-2.08-.81-4.34-4.25-5.76-1.3-.54-2.59-.82-3.7-.82Z"/>
    </g>
    <g>
      <path class="st1" d="M100.91,167.44c-.12,1.42-.87,3.81-2.21,6.26-3.64,6.69-10.04,8.75-16.56,5.2-6.05-3.3-8.74-10.15-4.55-17.85.92-1.69,2.23-3.39,3.48-4.47l4.23,3.62c-.75.58-1.67,1.56-2.6,3.25-1.85,3.39-.63,6.9,2.78,8.71,3.81,2.08,7.18.62,8.89-2.51.83-1.52,1.22-2.85,1.37-4.03l5.16,1.82Z"/>
      <path class="st5" d="M88.38,181.58c-2.17,0-4.43-.6-6.69-1.83-7.09-3.86-9.07-11.57-4.93-19.16,1-1.83,2.38-3.6,3.7-4.74l.63-.55,5.77,4.94-.95.73c-.83.64-1.62,1.63-2.33,2.95-.75,1.37-.94,2.78-.54,4.08.41,1.35,1.45,2.52,2.92,3.31,1.57.86,3.12,1.07,4.48.63,1.27-.41,2.35-1.36,3.1-2.75.7-1.28,1.11-2.48,1.26-3.69l.15-1.19,6.99,2.47-.06.74c-.14,1.73-1.03,4.28-2.32,6.65-2.64,4.84-6.69,7.41-11.18,7.41ZM81.11,157.88c-.96.98-1.94,2.3-2.66,3.63-3.64,6.68-2.01,13.17,4.16,16.54,6,3.27,11.84,1.43,15.24-4.81,1.14-2.09,1.75-3.94,1.99-5.15l-3.34-1.18c-.25,1.05-.67,2.11-1.27,3.2-.98,1.8-2.48,3.11-4.21,3.67-1.88.61-3.96.34-6-.77-1.93-1.02-3.3-2.6-3.86-4.45-.54-1.81-.3-3.73.7-5.57.61-1.11,1.27-2.04,1.98-2.77l-2.73-2.34Z"/>
    </g>
    <g>
      <path class="st1" d="M82.26,142.11c1.7,1.11,2.23,3.29.91,5.31-1.26,1.94-3.48,2.34-5.15,1.19-1.8-1.12-2.29-3.28-1-5.26,1.29-1.98,3.44-2.36,5.24-1.25ZM103.37,164.9l-19.75-12.87,4-6.14,19.75,12.87-4,6.14Z"/>
      <path class="st5" d="M103.66,166.24l-21.37-13.92,5.06-7.76,21.37,13.93-5.06,7.76ZM84.97,151.75l18.13,11.81,2.94-4.52-18.13-11.81-2.94,4.52ZM80.04,150.22c-.9,0-1.78-.28-2.56-.81-1.05-.65-1.79-1.66-2.05-2.83-.27-1.23,0-2.57.78-3.76,1.53-2.35,4.23-2.98,6.56-1.54h.02c2.25,1.48,2.75,4.28,1.2,6.66-.76,1.16-1.86,1.94-3.1,2.18-.28.06-.57.08-.85.08ZM80.2,142.46c-.91,0-1.76.49-2.36,1.43-.5.76-.67,1.55-.51,2.28.15.66.57,1.23,1.21,1.63.63.43,1.31.58,1.97.45.73-.14,1.38-.62,1.85-1.34.96-1.47.7-3.1-.62-3.97-.51-.31-1.04-.47-1.54-.47Z"/>
    </g>
    <g>
      <path class="st1" d="M118.45,143.86l-2.13-1.12-.09.11c.52,2.37-.17,4.89-1.9,7.09-2.95,3.75-7.44,3.84-10.39,1.52-4.81-3.78-3.73-9.92,1.46-16.45l-.27-.21c-.99-.77-2.81-1.35-5.04,1.5-1.49,1.9-2.42,4.41-2.62,6.22l-4.55-1.86c.29-1.85,1.38-5.11,4.03-8.48,4.86-6.18,10.04-5.29,14.4-1.86l6.44,5.06c1.78,1.4,3.55,2.66,4.72,3.28l-4.08,5.19ZM109.15,137.66c-2.42,3-3.55,5.92-1.31,7.68,1.48,1.16,2.97.74,3.98-.55,1.13-1.44,1.11-3.36.23-4.66-.24-.31-.56-.62-.9-.89l-2.01-1.58Z"/>
      <path class="st5" d="M108.42,153.98c-1.88,0-3.68-.66-5.08-1.75-1.98-1.55-3.12-3.52-3.39-5.83-.38-3.25,1.02-7.08,4.04-11.14-.26-.1-.52-.13-.78-.09-.72.1-1.54.7-2.36,1.74-1.44,1.83-2.25,4.2-2.42,5.72l-.14,1.28-6.45-2.63.12-.76c.16-1.04.95-4.77,4.22-8.93,4.51-5.75,10.11-6.47,15.76-2.03l6.44,5.06c1.94,1.52,3.56,2.65,4.57,3.18l1.03.54-5.3,6.74-1.34-.7c.01,2.1-.77,4.24-2.27,6.16-1.91,2.43-4.35,3.44-6.68,3.44ZM103.43,133.21c.81,0,1.6.29,2.31.84l1.03.81-.61.76c-3.15,3.96-4.63,7.6-4.28,10.55.21,1.78,1.1,3.31,2.66,4.53,2.45,1.92,6.33,2.07,9.03-1.36,1.56-1.99,2.17-4.22,1.71-6.29l-.1-.45.87-1.11,2.13,1.12,2.9-3.68c-1.27-.8-2.75-1.91-3.87-2.79l-6.44-5.06c-4.8-3.77-9.19-3.2-13.04,1.7-2.43,3.09-3.35,5.87-3.68,7.29l2.7,1.1c.44-1.89,1.4-3.93,2.6-5.47,1.15-1.47,2.37-2.3,3.62-2.47.16-.02.32-.03.47-.03ZM109.61,146.98c-.65,0-1.48-.19-2.37-.89-.91-.71-1.43-1.62-1.55-2.69-.2-1.74.71-3.88,2.7-6.35l.6-.74,2.76,2.17c.41.32.77.68,1.06,1.05,1.2,1.78,1.09,4.17-.23,5.86-.67.85-1.5,1.39-2.41,1.55-.17.03-.36.05-.57.05ZM109.32,139.03c-1.24,1.69-1.82,3.12-1.7,4.16.06.55.33,1,.82,1.39.48.38.95.53,1.4.45.43-.08.85-.37,1.22-.84.81-1.03.89-2.48.19-3.52-.15-.19-.41-.44-.69-.67l-1.24-.97Z"/>
    </g>
    <g>
      <path class="st1" d="M137.64,122.29c-.5,1.33-1.88,3.42-3.84,5.42-5.34,5.43-12.06,5.65-17.35.45-4.91-4.83-5.62-12.16.53-18.41,1.35-1.37,3.08-2.65,4.57-3.34l3.07,4.65c-.88.35-2.04,1.04-3.39,2.41-2.7,2.75-2.5,6.46.28,9.13,3.09,3.04,6.74,2.57,9.24.03,1.22-1.24,1.96-2.4,2.43-3.5l4.46,3.17Z"/>
      <path class="st5" d="M124.82,132.88c-3.17,0-6.31-1.34-9.05-4.04-5.76-5.66-5.55-13.61.52-19.78,1.46-1.48,3.28-2.81,4.86-3.54l.76-.35,4.19,6.34-1.11.44c-.97.38-2,1.12-3.05,2.19-1.09,1.11-1.66,2.42-1.64,3.77.02,1.41.7,2.82,1.9,3.98,1.28,1.26,2.72,1.9,4.14,1.84,1.34-.05,2.63-.67,3.74-1.79,1.02-1.04,1.75-2.08,2.23-3.2l.47-1.1,6.04,4.3-.26.7c-.61,1.63-2.16,3.83-4.06,5.76-2.95,2.99-6.32,4.5-9.67,4.5ZM121.23,107.66c-1.19.67-2.49,1.68-3.56,2.76-5.34,5.43-5.55,12.12-.54,17.04,4.87,4.79,11,4.63,15.98-.44,1.67-1.7,2.77-3.31,3.32-4.41l-2.89-2.05c-.53.94-1.23,1.84-2.1,2.73-1.44,1.47-3.24,2.31-5.05,2.37-1.97.07-3.9-.76-5.55-2.39-1.57-1.51-2.46-3.41-2.49-5.34-.03-1.89.73-3.67,2.2-5.16.89-.9,1.78-1.61,2.66-2.12l-1.98-3Z"/>
    </g>
    <g>
      <path class="st1" d="M126.79,92.79c1.32,1.54,1.22,3.78-.61,5.35-1.75,1.51-3.99,1.27-5.28-.3-1.42-1.58-1.29-3.79.5-5.33s3.96-1.31,5.38.27ZM140.69,120.58l-15.37-17.88,5.56-4.78,15.36,17.88-5.56,4.78Z"/>
      <path class="st5" d="M140.59,121.94l-16.63-19.34,7.03-6.04,16.63,19.35-7.02,6.04ZM126.69,102.8l14.1,16.41,4.09-3.51-14.1-16.41-4.09,3.51ZM123.61,100.13c-.13,0-.26,0-.38-.02-1.2-.1-2.29-.69-3.07-1.65-.82-.91-1.25-2.09-1.17-3.29.08-1.26.72-2.46,1.8-3.39,2.13-1.83,4.9-1.68,6.73.36l.02.02c1.75,2.04,1.45,4.86-.71,6.72-.94.81-2.07,1.25-3.2,1.25ZM124.02,92.45c-.67,0-1.35.27-1.98.81-.69.59-1.08,1.3-1.13,2.05-.04.68.2,1.34.71,1.9.48.58,1.1.92,1.77.98.74.06,1.5-.21,2.16-.77,1.33-1.14,1.54-2.78.51-3.98-.59-.65-1.31-.98-2.05-.98Z"/>
    </g>
    <g>
      <path class="st1" d="M162.23,89.16c4.94,7.07,2.19,13.82-2.99,17.44-5.65,3.95-12.59,3.27-16.96-2.97-4.36-6.24-3.04-13.11,3.16-17.44,5.93-4.14,12.72-2.84,16.78,2.97ZM145.95,73.95l-.62,9.38-4.15,2.9-.8-8.38,5.57-3.89ZM148.38,99.14c2.32,3.32,5.44,4.84,8.01,3.05,2.33-1.63,2.2-5.01-.23-8.49-2.02-2.88-5.17-5.04-7.89-3.13-2.89,2.02-1.88,5.73.11,8.57Z"/>
      <path class="st5" d="M151.97,110.01c-4,0-7.8-2-10.48-5.82-4.61-6.6-3.24-14.15,3.4-18.79,3.11-2.17,6.5-3.01,9.82-2.4,3.24.59,6.19,2.58,8.31,5.62,2.45,3.5,3.3,7.23,2.45,10.79-.74,3.11-2.75,5.95-5.68,7.99-2.51,1.76-5.21,2.61-7.83,2.61ZM152.61,84.74c-2.23,0-4.49.76-6.61,2.24-5.78,4.04-6.93,10.36-2.92,16.09,3.83,5.48,10.11,6.58,15.61,2.73,2.53-1.77,4.27-4.2,4.9-6.85.71-3.01-.03-6.2-2.15-9.24h0c-1.85-2.65-4.3-4.32-7.07-4.82-.58-.11-1.17-.16-1.75-.16ZM154.06,103.92c-.7,0-1.41-.15-2.13-.44-1.55-.64-3.05-1.95-4.34-3.78h0c-2.8-4.01-2.75-7.9.13-9.92,1.55-1.08,3.34-1.19,5.19-.31,1.44.69,2.88,1.99,4.06,3.68,1.31,1.87,2.02,3.76,2.07,5.46.05,1.84-.69,3.4-2.09,4.37-.89.63-1.87.94-2.89.94ZM149.17,98.58c1.06,1.51,2.29,2.61,3.49,3.1,1.15.47,2.22.37,3.18-.29.87-.61,1.3-1.53,1.26-2.73-.04-1.33-.64-2.85-1.73-4.41-.99-1.42-2.16-2.5-3.3-3.04-1.21-.58-2.27-.53-3.24.15-3,2.1-.24,6.38.35,7.22h0ZM140.37,87.98l-1.01-10.6,7.69-5.37-.79,11.85-5.89,4.12ZM141.4,78.32l.59,6.17,2.41-1.68.46-6.9-3.45,2.41Z"/>
    </g>
    <g>
      <path class="st1" d="M164.84,83.03c-1.34-2.62-2.56-4.81-3.59-6.61l5.67-2.89,1.77,2.72.13-.07c.18-1.77,1.3-4.88,4.77-6.66,4.29-2.19,8.96-1,12.12,5.18l6.36,12.45-6.53,3.33-5.94-11.63c-1.38-2.7-3.27-4.07-5.63-2.86-1.8.92-2.24,2.71-2.06,4.14.03.47.27,1.16.58,1.76l6.18,12.11-6.53,3.33-7.3-14.29Z"/>
      <path class="st5" d="M171.72,98.62l-7.74-15.16c-1.34-2.63-2.56-4.8-3.57-6.57l-.5-.88,7.35-3.75,1.1,1.7c.72-1.95,2.23-3.99,4.79-5.3,2.46-1.26,4.98-1.47,7.27-.6,2.46.93,4.53,3.02,6.15,6.19l6.8,13.31-8.25,4.21-6.38-12.5c-.63-1.23-1.34-2.09-2.06-2.49-.7-.39-1.42-.38-2.27.05-1.69.86-1.6,2.63-1.54,3.15.02.32.17.85.48,1.45l6.62,12.97-8.25,4.22ZM165.7,82.59l6.86,13.43,4.8-2.45-5.74-11.24c-.19-.37-.64-1.32-.68-2.15-.22-1.65.34-3.91,2.58-5.05,1.41-.72,2.83-.73,4.1-.02,1.07.6,2.02,1.71,2.84,3.3l5.5,10.77,4.8-2.45-5.92-11.59c-1.4-2.74-3.12-4.51-5.11-5.26-1.77-.67-3.74-.49-5.7.51-3.67,1.87-4.18,5.24-4.25,5.89l-.05.52-1.37.71-1.77-2.73-3.99,2.04c.91,1.61,1.96,3.52,3.11,5.77h0Z"/>
    </g>
    <g>
      <path class="st1" d="M196.67,50.86c2.48-1.15,5.8-2.33,9.38-3.33,5.94-1.67,10.09-1.68,13.75-.25,3.93,1.5,7.05,4.78,8.6,10.3,1.68,5.99.66,10.73-1.64,14.13-2.53,3.66-7.18,6.37-13.3,8.09-3.67,1.03-6.33,1.53-8.16,1.79l-8.62-30.72ZM210.93,74.39c.64-.03,1.62-.3,2.5-.55,6.42-1.75,9.6-6.45,7.51-13.92-1.78-6.51-6.55-8.88-12.63-7.17-1.58.44-2.56.87-3.12,1.18l5.74,20.47Z"/>
      <path class="st5" d="M204.59,82.66l-9.07-32.34.75-.35c2.53-1.17,5.92-2.37,9.52-3.39,6.01-1.68,10.44-1.75,14.36-.22,4.47,1.71,7.65,5.5,9.18,10.95,2.02,7.19.15,12.09-1.77,14.93-2.61,3.78-7.27,6.63-13.84,8.48-3.03.85-5.82,1.46-8.28,1.81l-.84.12ZM197.83,51.4l8.16,29.09c2.17-.35,4.59-.9,7.2-1.63,6.04-1.69,10.46-4.36,12.77-7.7,1.69-2.5,3.33-6.84,1.51-13.32-1.37-4.9-4.07-8.15-8.01-9.66-3.51-1.37-7.56-1.29-13.14.28-3.16.89-6.14,1.92-8.48,2.94ZM210.21,75.39l-6.16-21.95.68-.37c.56-.31,1.59-.77,3.33-1.26,3.33-.93,6.36-.71,8.76.65,2.43,1.38,4.13,3.8,5.06,7.2,1.08,3.85.87,7.15-.63,9.8-1.45,2.55-3.99,4.34-7.56,5.31-.96.27-1.96.55-2.71.58l-.77.04ZM206.34,54.44l5.29,18.86c.48-.1,1.05-.26,1.54-.4,3.06-.83,5.21-2.32,6.39-4.4,1.24-2.18,1.39-4.98.45-8.32-.79-2.89-2.18-4.92-4.15-6.03-1.94-1.1-4.46-1.26-7.28-.47-1.01.28-1.73.55-2.23.77Z"/>
    </g>
    <g>
      <path class="st1" d="M240.82,63.51c.65,2.98,3.8,4.01,7.19,3.55,2.48-.34,4.44-.94,6.32-1.83l1.62,4.79c-2.26,1.28-5.11,2.15-8.26,2.58-7.93,1.07-13.09-2.9-14.08-10.21-.8-5.92,1.99-12.97,10.12-14.06,7.55-1.02,11.21,4.47,11.99,10.25.17,1.24.17,2.36.15,2.9l-15.05,2.03ZM248.7,57.39c-.24-1.77-1.4-4.63-4.75-4.17-3.06.41-3.93,3.35-3.85,5.34l8.6-1.16Z"/>
      <path class="st5" d="M245.26,73.74c-6.91,0-11.65-4.13-12.61-11.22-.9-6.67,2.57-14.02,10.95-15.15,3.76-.5,6.99.48,9.35,2.85,1.95,1.97,3.28,4.89,3.73,8.23.16,1.21.19,2.38.16,3.07l-.04.81-14.64,1.98c1.03,1.73,3.52,2.09,5.73,1.79,2.27-.31,4.13-.84,6.04-1.74l.98-.46,2.23,6.58-.7.39c-2.32,1.31-5.3,2.24-8.61,2.69-.88.12-1.73.18-2.56.18ZM245.51,49.17c-.53,0-1.08.04-1.65.12-7.45,1.01-10.03,7.43-9.29,12.97.94,6.95,5.67,10.37,12.99,9.38,2.74-.37,5.21-1.09,7.21-2.08l-1.02-3.01c-1.75.72-3.56,1.19-5.61,1.47-4.33.58-7.57-1.11-8.27-4.31l-.22-1.02,15.26-2.06c0-.49-.05-1.17-.15-1.92-.39-2.92-1.53-5.45-3.18-7.12-1.6-1.6-3.63-2.41-6.07-2.41ZM239.17,59.65l-.04-1.07c-.1-2.82,1.3-5.87,4.69-6.33,2.28-.31,3.66.7,4.41,1.59,1,1.19,1.32,2.65,1.43,3.41l.13.96-10.62,1.43ZM244.64,54.13c-.18,0-.36.01-.56.04-2.12.29-2.76,2.06-2.94,3.26l6.39-.86c-.15-.47-.39-1.02-.78-1.48-.54-.64-1.23-.96-2.11-.96Z"/>
    </g>
    <g>
      <path class="st1" d="M260.6,54.94c-.05-3.08-.19-5.73-.32-7.9l6.36-.1.39,3.27h.1c1.69-2.54,4.37-3.88,7.8-3.94,5.16-.08,9.86,4.32,9.98,11.84.14,8.58-5.24,12.72-10.5,12.8-2.84.05-5.08-1.08-6.16-2.6h-.1s.19,11.71.19,11.71l-7.33.12-.41-25.21ZM268.01,60.37c0,.58.07,1.11.17,1.54.51,1.97,2.23,3.44,4.35,3.4,3.18-.05,5.02-2.73,4.95-6.73-.06-3.76-1.79-6.58-5.07-6.52-2.07.03-3.88,1.61-4.33,3.78-.09.39-.13.87-.12,1.3l.05,3.23Z"/>
      <path class="st5" d="M260.05,81.14l-.42-26.18c-.05-3.14-.2-5.85-.32-7.86l-.06-1.01,8.25-.13.24,2.03c1.82-1.71,4.26-2.63,7.17-2.68,2.9-.07,5.6,1.16,7.61,3.39,2.13,2.36,3.29,5.61,3.35,9.41.07,4.21-1.14,7.76-3.49,10.26-2.08,2.22-4.91,3.47-7.96,3.52-2.02.02-3.87-.47-5.27-1.4l.17,10.49-9.26.15ZM261.3,47.99c.11,1.89.22,4.26.26,6.93l.39,24.24,5.39-.09-.19-11.71,1.58-.02.3.41c.99,1.39,3.06,2.25,5.36,2.19,2.52-.04,4.86-1.07,6.58-2.91,2-2.13,3.02-5.21,2.97-8.91-.05-3.32-1.04-6.13-2.85-8.14-1.64-1.81-3.82-2.78-6.14-2.75-3.13.05-5.48,1.23-7.01,3.5l-.28.43h-1.38s-.2-.85-.2-.85l-.29-2.4-4.48.07ZM272.46,66.28c-2.44,0-4.58-1.69-5.21-4.13-.12-.52-.19-1.11-.2-1.77l-.05-3.23c0-.53.05-1.09.15-1.54.53-2.57,2.74-4.49,5.25-4.53,1.84-.04,3.46.74,4.54,2.23.96,1.31,1.48,3.13,1.51,5.25.07,4.63-2.24,7.66-5.91,7.72-.03,0-.06,0-.09,0ZM272.5,53.02s-.05,0-.07,0c-1.61.03-3.04,1.29-3.39,3.01-.07.32-.11.72-.1,1.09l.05,3.23c0,.51.06.97.14,1.33.42,1.61,1.78,2.69,3.39,2.66,2.56-.04,4.06-2.19,4-5.75-.03-1.72-.42-3.15-1.14-4.14-.69-.95-1.66-1.43-2.87-1.43Z"/>
    </g>
    <g>
      <path class="st1" d="M313.29,61.42c-1.05,8.57-7.6,11.75-13.87,10.98-6.84-.84-11.56-5.98-10.63-13.54.92-7.56,6.49-11.79,14-10.87,7.18.88,11.36,6.39,10.5,13.42ZM296.32,59.59c-.49,4.02.82,7.24,3.93,7.62,2.82.34,4.99-2.26,5.5-6.47.43-3.49-.48-7.2-3.78-7.6-3.49-.43-5.22,3-5.64,6.45Z"/>
      <path class="st5" d="M301.22,73.48c-.63,0-1.27-.04-1.92-.12-7.69-.94-12.41-6.95-11.48-14.62.98-7.99,7.04-12.7,15.08-11.71,3.77.46,6.85,2.11,8.91,4.77,2.02,2.6,2.88,6.06,2.43,9.73h0c-.52,4.24-2.38,7.58-5.39,9.67-2.15,1.49-4.81,2.27-7.65,2.27ZM300.81,48.84c-6.03,0-10.3,3.83-11.07,10.14-.81,6.64,3.13,11.65,9.79,12.46,3.07.38,5.99-.27,8.22-1.83,2.54-1.76,4.12-4.63,4.57-8.31.39-3.21-.31-6.08-2.04-8.31-1.74-2.24-4.37-3.64-7.62-4.03-.64-.08-1.26-.12-1.86-.12ZM300.74,68.21c-.2,0-.41-.01-.61-.04-1.83-.22-3.23-1.26-4.07-2.98-.73-1.51-.97-3.49-.7-5.71.59-4.86,3.23-7.72,6.72-7.29,3.4.42,5.22,3.82,4.63,8.68-.55,4.49-2.91,7.35-5.96,7.35ZM301.4,54.08c-3.26,0-4,4.66-4.12,5.63h0c-.22,1.83-.04,3.47.52,4.64.54,1.12,1.4,1.76,2.56,1.9,2.24.27,3.97-1.93,4.42-5.62.34-2.8-.22-6.19-2.94-6.52-.15-.02-.3-.03-.44-.03Z"/>
    </g>
    <g>
      <path class="st1" d="M319.02,58.99c.8-3.38,1.23-5.6,1.61-7.59l6.14,1.46-.77,4.28.19.04c1.96-3.05,5.11-3.79,7.32-3.27.66.16.98.23,1.48.45l-1.59,6.71c-.49-.22-1.08-.46-1.88-.64-2.63-.62-4.74.36-5.74,2.45-.21.45-.39,1-.52,1.56l-2.76,11.63-7.13-1.69,3.66-15.38Z"/>
      <path class="st5" d="M323.22,77.23l-9.01-2.14,3.88-16.32c.78-3.28,1.2-5.44,1.6-7.55l.19-1,8.02,1.91-.4,2.24c2-1.5,4.38-1.84,6.25-1.4.66.16,1.06.25,1.64.51l.74.32-2.05,8.62-1.06-.47c-.44-.19-.97-.41-1.71-.59-2.13-.51-3.82.2-4.64,1.92-.17.37-.33.86-.45,1.37l-2.99,12.57ZM316.54,73.65l5.24,1.25,2.54-10.69c.15-.64.35-1.25.58-1.74,1.22-2.56,3.83-3.7,6.84-2.99.36.09.68.18.97.28l1.13-4.77c-.16-.04-.33-.08-.56-.14-1.92-.46-4.61.25-6.28,2.85l-.37.58-1.75-.42.77-4.28-4.27-1.01c-.35,1.84-.76,3.83-1.43,6.64h0s-3.43,14.44-3.43,14.44Z"/>
    </g>
    <g>
      <path class="st1" d="M350.86,52.85l-2.16,6.39,4.98,1.68-1.73,5.12-4.98-1.68-2.73,8.08c-.91,2.69-.69,4.14,1.41,4.85.87.29,1.58.43,2.12.51l-1.73,5.27c-1.04.06-2.76-.27-4.72-.93-2.24-.76-3.85-2.17-4.56-3.68-.83-1.76-.75-4.12.32-7.27l3.09-9.14-2.97-1,1.73-5.12,2.97,1,1.64-4.84,7.33.75Z"/>
      <path class="st5" d="M345.8,84.05c-1.19,0-2.91-.35-4.8-.99-2.39-.81-4.26-2.33-5.13-4.18-.95-2.01-.86-4.62.28-7.99l2.78-8.22-2.97-1,2.35-6.95,2.97,1,1.57-4.66,9.31.95-2.24,6.63,4.98,1.68-2.35,6.95-4.98-1.68-2.42,7.17c-.41,1.22-.54,2.08-.4,2.62.09.33.29.7,1.21,1.01.65.22,1.29.37,1.95.47l1.14.17-2.29,6.99-.66.04c-.09,0-.19,0-.29,0ZM338.42,60.45l2.97,1-3.4,10.05c-.97,2.87-1.09,5.01-.36,6.55.64,1.36,2.13,2.55,3.99,3.17,1.43.48,2.76.79,3.72.87l1.16-3.54c-.39-.09-.77-.2-1.16-.34-1.37-.46-2.17-1.23-2.46-2.36-.24-.94-.11-2.09.44-3.73l3.04-9,4.98,1.68,1.11-3.28-4.98-1.68,2.08-6.16-5.35-.55-1.7,5.03-2.97-1-1.11,3.28Z"/>
    </g>
    <g>
      <path class="st1" d="M349.47,84.69l9.19-21.71,6.75,2.86-9.19,21.71-6.75-2.86ZM368.19,59.89c-.79,1.86-2.85,2.77-5.07,1.83-2.13-.9-2.91-3.01-2.08-4.86.78-1.97,2.82-2.84,5-1.92,2.18.92,2.93,2.97,2.15,4.94Z"/>
      <path class="st5" d="M356.74,88.81l-8.53-3.61,9.94-23.49,8.53,3.61-9.94,23.49ZM350.74,84.17l4.97,2.1,8.43-19.93-4.96-2.1-8.43,19.93ZM364.88,63.06c-.7,0-1.43-.15-2.14-.45-1.28-.54-2.24-1.49-2.7-2.67-.44-1.12-.4-2.35.11-3.48.45-1.14,1.32-2.05,2.42-2.51,1.16-.49,2.53-.45,3.84.1,2.58,1.09,3.68,3.64,2.67,6.19v.02c-.5,1.17-1.41,2.05-2.55,2.49-.52.2-1.08.3-1.66.3ZM364.32,55.55c-.35,0-.68.06-.99.19-.63.26-1.11.77-1.39,1.48-.31.69-.34,1.39-.09,2.02.27.69.85,1.25,1.65,1.59.83.35,1.64.39,2.35.12.65-.25,1.16-.76,1.45-1.43.61-1.56-.03-3-1.63-3.68-.46-.2-.92-.29-1.34-.29Z"/>
    </g>
    <g>
      <path class="st1" d="M376.96,71.33l-2.38,11.15c-.43,2.01-.93,3.88-1.53,5.69l.13.07c1.25-1.52,2.44-2.9,3.86-4.44l7.85-8.2,6.8,3.65-18.89,16.61-6.45-3.47,3.6-24.83,7.01,3.76Z"/>
      <path class="st5" d="M372.94,97.04l-7.64-4.11,3.89-26.87,8.87,4.76-2.53,11.86c-.13.61-.26,1.2-.41,1.8.38-.43.79-.88,1.22-1.34l8.37-8.74,8.67,4.66-20.44,17.98ZM367.41,91.86l5.26,2.83,17.33-15.25-4.92-2.64-7.35,7.67c-1.5,1.62-2.72,3.06-3.82,4.39l-.5.61-1.54-.82.25-.77c.61-1.86,1.1-3.69,1.5-5.59l2.23-10.44-5.15-2.77-3.3,22.79Z"/>
    </g>
    <g>
      <path class="st1" d="M393.23,108.94l1-2.18-.12-.08c-2.34.66-4.9.1-7.19-1.5-3.91-2.74-4.25-7.21-2.09-10.29,3.51-5.02,9.7-4.27,16.51.55l.19-.28c.72-1.03,1.19-2.88-1.77-4.95-1.98-1.38-4.54-2.18-6.36-2.27l1.6-4.64c1.87.19,5.18,1.09,8.69,3.55,6.44,4.51,5.84,9.74,2.66,14.28l-4.7,6.72c-1.3,1.86-2.46,3.69-3.01,4.89l-5.41-3.79ZM398.91,99.32c-3.13-2.25-6.11-3.21-7.74-.88-1.08,1.54-.58,3.01.77,3.95,1.5,1.05,3.42.92,4.67-.03.3-.26.59-.59.84-.94l1.46-2.09Z"/>
      <path class="st5" d="M399.04,114.19l-7.03-4.92.63-1.37c-2.09.13-4.28-.53-6.28-1.93-4.57-3.2-4.61-8.39-2.33-11.64,1.44-2.06,3.34-3.31,5.64-3.71,3.22-.56,7.12.62,11.35,3.42.3-.96-.31-1.98-1.82-3.04-1.91-1.34-4.32-2.02-5.85-2.1l-1.29-.07,2.27-6.59.76.08c1.05.11,4.82.69,9.15,3.72,5.99,4.19,7.02,9.74,2.9,15.63l-4.7,6.71c-1.42,2.02-2.45,3.71-2.93,4.74l-.48,1.06ZM394.45,108.61l3.84,2.69c.73-1.31,1.76-2.85,2.58-4.02l4.7-6.71c3.5-5,2.69-9.35-2.42-12.93-3.22-2.26-6.05-3.02-7.48-3.28l-.95,2.75c1.92.34,4,1.18,5.6,2.3,4,2.8,2.55,5.53,2.01,6.3l-.75,1.07-.79-.56c-4.12-2.92-7.85-4.2-10.77-3.69-1.77.31-3.24,1.29-4.38,2.91-1.78,2.55-1.72,6.44,1.86,8.94,2.07,1.45,4.33,1.93,6.37,1.36l.44-.12,1.16.8-1,2.19ZM394.26,104.08c-1.01,0-2.02-.3-2.88-.9-1.92-1.35-2.32-3.43-1-5.3.66-.94,1.54-1.51,2.6-1.7,1.73-.29,3.92.5,6.49,2.35l.78.56-2.01,2.88c-.3.43-.64.81-.99,1.12-.88.66-1.93.99-2.98.99ZM393.72,98.06c-.15,0-.29.01-.42.03-.54.09-.98.39-1.34.9-.87,1.24-.19,2.1.53,2.6,1.08.75,2.53.75,3.53,0,.19-.16.42-.43.63-.73l.9-1.29c-1.53-.99-2.83-1.51-3.83-1.51Z"/>
    </g>
    <g>
      <path class="st1" d="M449.66,113.16l-19.06,19.39c-1.86,1.89-3.75,3.95-4.8,5.15l-4.64-4.56,2.19-2.71-.07-.07c-2.92.84-5.9-.19-8.06-2.32-3.99-3.92-3.84-10.47,1.3-15.69,5.54-5.71,12.29-5.49,16.32-1.54,2.06,2.03,2.97,4.34,2.58,6.25l.07.07,8.96-9.11,5.22,5.14ZM429.97,122.74c.27-.27.61-.69.84-1,1.08-1.71,1.09-4-.52-5.59-2.37-2.33-5.7-1.42-8.31,1.23-2.81,2.85-3.15,6.03-.99,8.16,1.51,1.49,3.73,1.64,5.49.46.48-.28.88-.62,1.32-1.07l2.16-2.2Z"/>
      <path class="st5" d="M425.86,139.12l-6-5.9,1.29-1.59c-2.36-.02-4.71-1.03-6.6-2.89-2.17-2.14-3.26-5.02-3.06-8.11.21-3.17,1.71-6.27,4.35-8.95,2.94-3.03,6.36-4.66,9.88-4.7,2.92-.03,5.71,1.08,7.81,3.15,1.52,1.49,2.48,3.14,2.82,4.76l8.09-8.23,6.61,6.49-19.74,20.08c-1.85,1.88-3.72,3.92-4.76,5.11l-.68.78ZM422.47,133.07l3.29,3.23c1.09-1.22,2.63-2.88,4.15-4.43l18.38-18.7-3.84-3.78-8.95,9.11-1.07-1.05.04-.58c.33-1.61-.53-3.62-2.31-5.37-1.73-1.7-4.04-2.61-6.43-2.59-2.99.03-5.94,1.46-8.52,4.11-2.31,2.35-3.62,5.02-3.8,7.72-.16,2.52.72,4.87,2.49,6.6,2.03,2,4.69,2.77,7.12,2.08l.54-.16,1.03,1.01-.49.75-1.64,2.03ZM423.99,127.77c-1.33,0-2.64-.52-3.68-1.53-2.59-2.55-2.21-6.29.98-9.53,1.48-1.5,3.12-2.45,4.76-2.76,1.86-.34,3.57.18,4.92,1.51,1.82,1.79,2.09,4.52.67,6.79-.17.23-.59.77-.97,1.16l-2.16,2.2c-.54.55-1.01.93-1.52,1.23-.93.62-1.96.92-2.98.92ZM427.13,115.79c-.24,0-.48.02-.73.07-1.22.23-2.55,1.01-3.73,2.21-2.39,2.44-2.78,5.04-1,6.79,1.16,1.14,2.88,1.28,4.28.35.41-.24.75-.52,1.17-.94l2.16-2.2c.24-.25.56-.64.76-.9.72-1.16.91-2.99-.43-4.31-.72-.7-1.55-1.06-2.48-1.06Z"/>
    </g>
    <g>
      <path class="st1" d="M439.83,139.81c-2.22,2.09-1.48,5.33.67,7.99,1.57,1.96,3.1,3.32,4.82,4.47l-3.27,3.86c-2.26-1.28-4.48-3.27-6.47-5.75-5.01-6.24-4.27-12.71,1.49-17.33,4.66-3.74,12.14-4.98,17.27,1.41,4.77,5.94,1.95,11.91-2.6,15.56-.98.78-1.93,1.37-2.41,1.62l-9.5-11.84ZM449.14,143.4c1.39-1.12,3.24-3.59,1.13-6.22-1.93-2.41-4.9-1.63-6.56-.55l5.43,6.77Z"/>
      <path class="st5" d="M442.27,157.37l-.7-.39c-2.33-1.31-4.66-3.38-6.75-5.99-2.6-3.24-3.81-6.68-3.5-9.97.3-3.25,2.08-6.27,5.14-8.72,2.62-2.1,5.89-3.31,8.99-3.31.03,0,.06,0,.08,0,3.72.03,7.02,1.71,9.56,4.87,5.3,6.61,1.83,13.24-2.75,16.92-.95.76-1.94,1.39-2.55,1.72l-.71.39-9.25-11.53c-.96,1.77.02,4.09,1.42,5.84,1.43,1.79,2.86,3.11,4.61,4.27l.9.6-4.49,5.3ZM445.45,130.93c-2.66,0-5.49,1.05-7.77,2.88-2.64,2.12-4.17,4.67-4.42,7.39-.26,2.77.81,5.74,3.08,8.58,1.73,2.15,3.62,3.9,5.5,5.1l2.05-2.42c-1.52-1.13-2.86-2.43-4.16-4.05-2.73-3.41-2.96-7.06-.58-9.31l.76-.72,9.64,12.01c.42-.26.98-.64,1.57-1.12,4.07-3.27,6.85-8.71,2.45-14.2-2.16-2.69-4.94-4.12-8.06-4.14-.02,0-.05,0-.07,0ZM448.99,144.76l-6.7-8.36.89-.58c2.36-1.55,5.7-1.91,7.84.75,2.36,2.94.79,5.92-1.28,7.58l-.76.61ZM445.2,136.95l4.04,5.03c.8-.91,1.66-2.46.27-4.19-1.34-1.67-3.19-1.3-4.31-.84Z"/>
    </g>
    <g>
      <path class="st1" d="M480.59,157.6l3.77,6.28-17.61,10.56c-7.94,4.76-12.99,2.62-16.66-3.5-.87-1.45-1.76-3.5-2.09-4.99l5.51-2.35c.23,1.04.69,2.28,1.44,3.52,1.59,2.65,3.78,3.58,8.12.98l17.53-10.51Z"/>
      <path class="st5" d="M458.98,178.01c-.83,0-1.63-.1-2.41-.3-2.83-.74-5.23-2.79-7.31-6.27-.98-1.64-1.87-3.76-2.21-5.27l-.17-.79,7.32-3.12.25,1.14c.23,1.06.7,2.2,1.32,3.23.72,1.2,1.47,1.84,2.37,2,1.08.2,2.58-.25,4.42-1.36l18.36-11.01,4.76,7.95-18.44,11.06c-3.06,1.83-5.78,2.74-8.26,2.74ZM449.15,166.51c.38,1.23,1.05,2.74,1.77,3.93,1.81,3.03,3.82,4.79,6.14,5.39,2.57.67,5.58-.06,9.19-2.22l16.78-10.06-2.77-4.62-16.7,10.01c-2.29,1.37-4.17,1.9-5.77,1.6-1.46-.27-2.67-1.22-3.68-2.91-.6-1-.99-1.92-1.24-2.7l-3.72,1.58Z"/>
    </g>
    <g>
      <path class="st1" d="M475.39,201.84c-2.79,1.32-5.02,2.47-6.76,3.41l-2.72-5.75,2.86-1.73-.06-.13c-1.7-.21-4.82-1.19-6.64-5.02-2.04-4.32-.84-8.77,5.75-11.88l12.51-5.91,3.15,6.67-11.47,5.41c-3.09,1.46-4.5,3.35-3.41,5.66.86,1.83,2.62,2.28,3.87,2.22.48-.01,1.02-.21,1.54-.46l12.69-5.99,3.15,6.67-14.47,6.83Z"/>
      <path class="st5" d="M468.19,206.58l-3.52-7.47,1.77-1.07c-1.72-.66-3.84-2.07-5.23-5.02-1.18-2.5-1.31-4.99-.38-7.19,1.02-2.39,3.23-4.4,6.58-5.99l13.39-6.32,3.98,8.42-12.34,5.83c-4.09,1.93-3.23,3.77-2.94,4.37.75,1.59,2.31,1.7,2.95,1.67.28,0,.67-.13,1.17-.37l13.56-6.4,3.98,8.42-15.35,7.25c-2.94,1.39-5.24,2.6-6.72,3.39l-.9.48ZM467.16,199.87l1.91,4.05c1.47-.77,3.47-1.8,5.91-2.95l13.6-6.42-2.32-4.92-11.81,5.58c-.77.37-1.39.54-1.93.55-.76.04-3.48-.05-4.77-2.78-.74-1.56-1.22-4.55,3.87-6.95l10.59-5-2.32-4.92-11.64,5.49c-2.91,1.37-4.8,3.05-5.63,4.99-.72,1.7-.61,3.59.35,5.6,1.64,3.46,4.38,4.29,5.88,4.48l.53.07.67,1.4-2.87,1.73Z"/>
    </g>
    <g>
      <path class="st1" d="M510.16,220.4l-25.76,8.69c-2.51.85-5.13,1.83-6.61,2.43l-2.08-6.17,3.18-1.43-.03-.09c-2.99-.57-5.18-2.83-6.15-5.71-1.79-5.3,1.3-11.07,8.24-13.41,7.52-2.59,13.45.65,15.25,6,.92,2.74.69,5.21-.52,6.74l.03.09,12.1-4.08,2.34,6.94ZM488.27,220.05c.37-.12.85-.34,1.2-.51,1.73-1.04,2.78-3.07,2.05-5.22-1.06-3.15-4.45-3.84-7.97-2.65-3.79,1.28-5.53,3.95-4.56,6.83.68,2.01,2.59,3.15,4.69,2.89.55-.03,1.07-.16,1.66-.36l2.92-.99Z"/>
      <path class="st5" d="M477.2,232.8l-2.69-7.97,1.87-.84c-2.09-1.09-3.74-3.04-4.59-5.56-2.04-6.06,1.68-12.22,8.85-14.64,3.99-1.37,7.78-1.28,10.94.27,2.63,1.29,4.6,3.54,5.54,6.33.68,2.02.8,3.93.37,5.52l10.93-3.69,2.96,8.78-26.68,9c-2.49.84-5.09,1.82-6.55,2.41l-.95.39ZM476.91,225.88l1.47,4.37c1.53-.59,3.65-1.38,5.71-2.07l24.84-8.38-1.72-5.11-12.11,4.08-.47-1.42.3-.5c1.02-1.29,1.16-3.47.37-5.83-.78-2.3-2.39-4.15-4.56-5.21-2.69-1.32-5.96-1.38-9.46-.18-6.12,2.06-9.33,7.19-7.64,12.19.91,2.7,2.93,4.6,5.41,5.07l.55.1.47,1.37-.77.45-2.38,1.07ZM483.06,222.4c-2.27,0-4.24-1.38-4.98-3.59-1.16-3.44.87-6.61,5.17-8.06,1.99-.67,3.89-.78,5.49-.31,1.82.53,3.1,1.77,3.71,3.57.82,2.42-.18,4.98-2.47,6.36-.26.13-.88.42-1.39.59h0s-2.92.99-2.92.99c-.73.24-1.32.37-1.91.4-.23.03-.46.04-.68.04ZM486.65,212.09c-.86,0-1.81.17-2.78.49-3.24,1.09-4.75,3.24-3.96,5.6.52,1.54,1.98,2.45,3.66,2.24.48-.03.9-.12,1.47-.31l2.92-.99c.33-.11.78-.31,1.09-.46,1.17-.71,2.16-2.26,1.56-4.04-.4-1.2-1.22-1.98-2.42-2.33-.47-.14-.98-.21-1.54-.21Z"/>
    </g>
    <g>
      <path class="st1" d="M495.67,256.41c-8.44,1.8-13.59-3.36-14.91-9.53-1.44-6.74,1.88-12.88,9.33-14.47,7.45-1.59,13.26,2.29,14.84,9.7,1.51,7.07-2.34,12.82-9.27,14.31ZM491.87,239.77c-3.96.85-6.58,3.13-5.92,6.2.6,2.78,3.76,3.98,7.91,3.09,3.44-.74,6.65-2.8,5.95-6.05-.74-3.44-4.54-3.96-7.94-3.23Z"/>
      <path class="st5" d="M492.35,257.75c-7.05,0-11.32-5.03-12.53-10.67-1.62-7.58,2.52-14,10.08-15.62,7.87-1.68,14.3,2.51,15.99,10.44,1.6,7.5-2.51,13.85-10.01,15.46h0c-1.24.27-2.42.39-3.53.39ZM493.28,233.03c-.96,0-1.95.11-2.98.33-6.54,1.4-9.99,6.75-8.59,13.32,1.11,5.17,5.37,10.58,13.76,8.79,6.48-1.39,9.91-6.67,8.52-13.16-1.25-5.86-5.32-9.28-10.71-9.28ZM491.32,250.31c-3.34,0-5.76-1.51-6.32-4.14-.73-3.44,1.88-6.32,6.67-7.34,2.02-.43,3.96-.4,5.46.08,1.96.63,3.21,1.97,3.62,3.9.4,1.85-.2,3.54-1.73,4.9-1.19,1.06-2.96,1.88-4.97,2.31-.96.21-1.88.3-2.73.3ZM494.43,240.45c-.74,0-1.54.09-2.36.26h0c-2.89.62-5.77,2.27-5.18,5.05.47,2.2,3.12,3.13,6.76,2.35,1.69-.36,3.14-1.02,4.09-1.86,1-.89,1.37-1.88,1.12-3.04-.27-1.24-1.02-2.05-2.32-2.46-.61-.2-1.33-.29-2.11-.29Z"/>
    </g>
  </g>
  <path class="st1" d="M311.54,364.59l-6.53,10.81c-.48,1.31-12.18,32.24-25.37,39.24,10.67-.38,55.11-3.49,87.31-28.35l-45.89-21.7h-9.52Z"/>
  <path class="st1" d="M245.61,375.37l-6.51-10.77h-9.52l-45.89,21.7c32.2,24.86,76.64,27.96,87.31,28.35-13.08-6.94-24.69-37.43-25.39-39.27Z"/>
  <path class="st1" d="M311.03,363.68l-6.83,11.33c-.13.35-13.41,35.46-27.05,39.71l-1.82.57-1.82-.57c-13.64-4.25-26.92-39.35-27.05-39.71l-6.83-11.33h-10.14l-47.51,22.42.58.45c36.7,28.77,89.65,29.05,90.8,29.05h1.97s1.95,0,1.95,0h.02c1.16,0,54.1-.28,90.8-29.05l.58-.45-47.31-22.37-10.33-.04ZM183.69,386.29l45.89-21.7h9.52l6.51,10.77c.69,1.85,12.31,32.33,25.39,39.27-10.67-.38-55.11-3.49-87.31-28.35ZM279.64,414.64c13.19-7,24.88-37.93,25.37-39.24l6.53-10.81h9.52l45.89,21.7c-32.2,24.86-76.64,27.96-87.31,28.35Z"/>
  <path class="st1" d="M444.57,354l-42-87.29c10.08-16.11,22.65-45.83,10.78-82.64l-3.25-3.19-15.29-7.99c-.06-.28-.11-.57-.17-.88l-3-12.04-77.31-30.33c-3.18-1.25-6.71.73-7.3,4.1h0c-11.8-6.86-25.17-10.46-38.97-10.46s-26.81,3.63-38.21,10.09h0c-.55-3.62-4.33-5.8-7.74-4.46l-76.86,30.16-2.87,15.4-15.92,6.4-3.28,3.14c-11.89,36.85.68,66.58,10.75,82.7l-41.73,86.56,70.59,30.99,12,9.4c37.75,29.59,90.25,29.93,92.48,29.93h1.69s1.71,0,1.71,0c2.22,0,54.72-.34,92.47-29.93l14.4-11.29,67.02-28.38Z"/>
  <g>
    <g>
      <path class="st1" d="M104.93,429.49c.97,3.9,3.26,9.09,7.14,12.89,4.18,4.09,8.43,4.17,11.52,1.01,2.95-3.02,2.73-6.61-.07-13.43-3.94-9.35-3.94-18.07,2.95-25.1,8.09-8.26,20-8.97,29.5.32,4.54,4.44,6.75,8.86,7.88,12.49l-10.68,6.85c-.7-2.51-2.23-6.68-6.17-10.54-3.94-3.86-7.96-3.57-10.42-1.06-3.02,3.09-2.09,6.67.78,14.13,4.01,10.11,2.99,17.84-3.69,24.66-7.94,8.12-19.89,9.93-30.93-.88-4.6-4.5-7.73-10.38-8.52-14.11l10.71-7.24Z"/>
      <path class="st5" d="M118.98,459.35c-5.84,0-11.68-2.7-16.91-7.82-4.93-4.83-8.01-10.95-8.79-14.6l-.14-.64,12.4-8.38.33,1.34c1.17,4.72,3.74,9.37,6.87,12.43,3.62,3.54,7.32,3.91,10.15,1.02,2.53-2.59,2.47-5.71-.27-12.38-4.48-10.63-3.43-19.43,3.15-26.15,4.19-4.28,9.48-6.66,14.9-6.72.06,0,.13,0,.19,0,5.63,0,11.08,2.42,15.77,7.02,3.94,3.86,6.67,8.19,8.12,12.9l.22.7-12.4,7.96-.35-1.26c-1.09-3.93-3.08-7.33-5.91-10.1-3.18-3.11-6.65-3.52-9.05-1.07-2.51,2.56-1.98,5.38.99,13.1,4.18,10.54,2.94,18.7-3.9,25.69-4.33,4.43-9.51,6.83-14.97,6.95-.14,0-.28,0-.41,0ZM95.32,437.16c.91,3.42,3.73,8.71,8.1,12.99,4.97,4.87,10.5,7.38,15.93,7.26,4.95-.11,9.66-2.31,13.63-6.37,6.32-6.46,7.4-13.75,3.48-23.63-2.7-7.01-4.17-11.49-.57-15.16,2.61-2.67,7.27-3.38,11.79,1.04,2.77,2.71,4.8,5.98,6.04,9.72l8.97-5.76c-1.41-4.13-3.89-7.96-7.4-11.39-4.37-4.28-9.38-6.51-14.59-6.46-4.91.05-9.71,2.22-13.54,6.13-6.06,6.2-6.96,14.06-2.75,24.05,2.63,6.4,3.45,10.82-.13,14.48-3.58,3.66-8.52,3.28-12.89-.99-3.08-3.02-5.65-7.44-7.03-12.03l-9.03,6.11Z"/>
    </g>
    <g>
      <path class="st1" d="M152.94,489.47l2.05-4.54-.21-.14c-4.37,1.84-9.03,1.34-13.09-1.3-6.94-4.5-7.14-13.25-2.87-19.83,6.94-10.71,18.27-10.68,30.34-2.73l.38-.59c1.42-2.19,2.46-5.95-2.79-9.36-3.5-2.27-8.15-3.25-11.48-3.01l3.39-9.54c3.42-.06,9.43.96,15.67,5.01,11.42,7.41,9.82,17.87,3.53,27.57l-9.29,14.34c-2.57,3.96-4.89,7.85-6.02,10.35l-9.6-6.22ZM164.31,469.17c-5.55-3.72-10.94-4.93-14.16.04-2.13,3.29-1.35,6.07,1.03,7.62,2.66,1.73,6.2,1.03,8.6-1.13.58-.58,1.14-1.3,1.63-2.06l2.9-4.47Z"/>
      <path class="st5" d="M162.96,497.12l-11.25-7.29,1.58-3.5c-4.09,1.13-8.33.44-12.13-2.03-7.72-5.01-7.39-14.64-3.16-21.17,3.01-4.64,6.89-7.49,11.55-8.47,5.66-1.19,12.32.52,19.31,4.93,1.75-2.9.86-5.52-2.65-7.8-3.48-2.26-7.98-3.07-10.89-2.86l-1.48.1,4.12-11.56h.67c1.88-.04,8.63.24,16.21,5.15,10.39,6.74,11.71,16.73,3.82,28.91l-9.29,14.34c-2.83,4.37-4.95,8-5.94,10.22l-.46,1.03ZM154.17,489.11l7.98,5.17c1.15-2.32,3.11-5.62,5.6-9.47l9.29-14.34c7.3-11.27,6.21-20.09-3.25-26.23-6.4-4.15-12.1-4.78-14.46-4.85l-2.69,7.56c3.61.07,7.64,1.27,10.63,3.2,6.36,4.13,4.27,8.86,3.08,10.7l-.91,1.41-.82-.54c-6.86-4.51-13.32-6.3-18.68-5.18-4.13.87-7.6,3.43-10.32,7.63-3.81,5.88-4.15,14.12,2.59,18.49,3.83,2.48,8.16,2.91,12.19,1.22l.47-.2,1.34.87-2.05,4.54ZM154.54,478.76c-1.38,0-2.72-.37-3.88-1.12-1.46-.94-2.37-2.26-2.64-3.8-.28-1.61.17-3.39,1.32-5.16,1.27-1.96,2.93-3.17,4.94-3.58,2.9-.59,6.46.5,10.58,3.26l.79.53-3.42,5.27c-.54.83-1.15,1.6-1.76,2.21-1.74,1.57-3.88,2.38-5.93,2.38ZM155.88,466.88c-.43,0-.83.04-1.22.12-1.5.31-2.71,1.2-3.7,2.74-.87,1.35-1.23,2.65-1.03,3.77.17,1,.79,1.87,1.78,2.51,2.15,1.39,5.2.96,7.42-1.04.48-.49,1-1.14,1.47-1.86l2.37-3.66c-2.73-1.71-5.11-2.57-7.09-2.57Z"/>
    </g>
    <g>
      <path class="st1" d="M191.21,473.11c2.06-5.78,3.65-10.76,4.94-14.88l10.39,3.7-1.71,6.54.24.08c2.62-2.38,8.14-5.43,14.51-3.16,7.87,2.8,11.55,11.15,6.69,24.79l-9.78,27.46-11.96-4.26,9.14-25.66c2.12-5.97,1.84-10.65-2.49-12.2-3.31-1.18-6.25.87-7.98,3.24-.62.74-1.28,2.1-1.75,3.43l-9.51,26.7-11.96-4.26,11.23-31.53Z"/>
      <path class="st5" d="M217.09,518.88l-13.79-4.91,9.46-26.57c2.16-6.06,1.52-9.74-1.9-10.96-3.5-1.25-6.15,1.9-6.87,2.9-.53.64-1.16,1.87-1.62,3.18l-9.83,27.61-13.79-4.91,11.55-32.45c2.07-5.81,3.65-10.77,4.93-14.85l.3-.96,12.17,4.33-1.3,4.99c3.46-2.27,8.35-3.66,13.51-1.82,4.35,1.55,7.37,4.65,8.72,8.95,1.44,4.6.96,10.35-1.44,17.07l-10.1,28.37ZM205.77,512.8l10.14,3.61,9.45-26.55c2.25-6.32,2.72-11.65,1.41-15.84-1.16-3.7-3.76-6.37-7.52-7.71-7.02-2.5-12.51,2.03-13.54,2.96l-.43.39-1.62-.58,1.71-6.54-8.6-3.06c-1.23,3.91-2.73,8.56-4.65,13.96l-10.9,30.62,10.14,3.61,9.18-25.79c.55-1.56,1.27-2.95,1.92-3.73,1.87-2.57,5.26-4.88,9.05-3.53,3.18,1.13,6.3,4.38,3.07,13.43l-8.81,24.75Z"/>
    </g>
    <g>
      <path class="st1" d="M258.24,457.8c3.91-.88,9.41-1.59,17.18-1.74,7.85-.15,13.48,1.55,17.31,5.09,3.66,3.35,6.19,8.93,6.32,15.56.13,6.63-1.6,12.3-4.86,16.18-4.25,5.01-10.63,7.34-18.15,7.49-1.67.03-3.18-.04-4.35-.22l.47,24.22-12.61.25-1.3-66.83ZM271.45,488.31c1.09.28,2.43.35,4.27.32,6.76-.13,10.86-4.33,10.72-11.27-.12-6.23-3.78-9.88-10.13-9.76-2.59.05-4.34.39-5.25.71l.39,20Z"/>
      <path class="st5" d="M258.59,525.62l-1.34-68.59.77-.17c4.61-1.04,10.45-1.63,17.37-1.76,8.05-.16,13.93,1.59,17.99,5.35,4.08,3.74,6.5,9.66,6.63,16.25.13,6.79-1.68,12.76-5.09,16.82-4.21,4.97-10.74,7.68-18.87,7.84-1.24.02-2.39,0-3.38-.1l.47,24.08-14.55.28ZM259.23,458.58l1.27,65.06,10.67-.21-.48-24.4,1.14.17c1.1.17,2.54.23,4.18.21,7.67-.15,13.53-2.55,17.43-7.15,3.11-3.7,4.76-9.22,4.63-15.53-.12-6.06-2.3-11.48-6-14.87-3.68-3.4-9.13-4.99-16.64-4.84-6.4.12-11.85.65-16.21,1.55ZM274.94,489.6c-1.63,0-2.77-.11-3.73-.36l-.71-.18-.42-21.44.66-.23c1.25-.44,3.28-.72,5.55-.76,6.79-.14,10.98,3.87,11.12,10.7.14,7.42-4.33,12.11-11.67,12.25-.28,0-.54,0-.8,0ZM272.4,487.51c.82.13,1.86.17,3.3.14,6.24-.12,9.9-3.96,9.77-10.28-.11-5.79-3.34-8.89-9.14-8.81-2.13.04-3.51.28-4.29.46l.36,18.48Z"/>
    </g>
    <g>
      <path class="st1" d="M319.95,499.55c2.03,6.01,7.81,7.6,13.54,6.07,4.2-1.12,7.41-2.7,10.38-4.84l4.27,9.58c-3.52,3.02-8.19,5.3-13.52,6.71-13.4,3.56-23.55-3.73-27.5-18.59-3.2-12.05-.52-27.01,13.2-30.65,12.76-3.39,20.78,7.27,23.9,19.02.67,2.53,1.02,4.82,1.14,5.94l-25.43,6.76ZM331.72,485.6c-.95-3.59-3.85-9.27-9.5-7.77-5.17,1.37-5.77,7.57-5.03,11.63l14.53-3.86Z"/>
      <path class="st5" d="M328.17,518.92c-4.2,0-8.06-1.16-11.38-3.44-4.92-3.38-8.58-9.17-10.59-16.75-3.36-12.66-.45-28.03,13.89-31.84,13.66-3.63,21.92,7.8,25.08,19.71.63,2.38,1.02,4.7,1.17,6.08l.09.83-25.19,6.69c2.27,5.03,7.59,5.65,12,4.48,3.9-1.04,7-2.48,10.07-4.69l.96-.7,5.05,11.32-.55.47c-3.56,3.05-8.37,5.44-13.9,6.91-2.31.61-4.55.92-6.71.92ZM324.98,468.16c-1.39,0-2.86.19-4.4.6-13.06,3.47-15.64,17.71-12.52,29.47,1.89,7.13,5.29,12.54,9.82,15.65,4.55,3.13,10.25,3.91,16.5,2.25,4.96-1.32,9.3-3.41,12.58-6.05l-3.5-7.84c-2.93,1.96-6.06,3.34-9.73,4.31-6.94,1.84-12.71-.79-14.71-6.7l-.33-.98,25.61-6.81c-.15-1.04-.45-2.87-1.01-4.97-2.56-9.62-8.62-18.94-18.32-18.94ZM316.42,490.67l-.19-1.03c-.96-5.33.44-11.33,5.74-12.74,2.84-.75,5.42.03,7.47,2.25,1.98,2.15,2.91,5.06,3.21,6.2l.25.94-16.48,4.38ZM324.04,478.55c-.5,0-1.03.07-1.57.22-4.23,1.13-4.84,6.08-4.48,9.48l12.51-3.33c-.41-1.23-1.19-3.05-2.48-4.46-1.18-1.28-2.49-1.91-3.98-1.91Z"/>
    </g>
    <g>
      <path class="st1" d="M368,423.26l27.35,49.66c2.67,4.84,5.63,9.87,7.37,12.69l-9.88,5.44-4-6.06-.15.08c.4,6.09-2.56,10.93-7.17,13.47-8.49,4.67-20.09-.3-27.46-13.68-8.07-14.49-5.14-27,3.42-31.72,4.39-2.42,8.85-2.46,12.11-.36l.15-.08-12.85-23.33,11.12-6.12ZM377.63,467.07c-.39-.7-.99-1.63-1.46-2.3-2.65-3.25-6.71-4.91-10.15-3.02-5.05,2.78-4.68,9.69-.94,16.47,4.02,7.31,9.55,10.23,14.16,7.7,3.22-1.77,4.33-5.82,2.9-9.97-.31-1.09-.77-2.1-1.4-3.24l-3.1-5.64Z"/>
      <path class="st5" d="M374.81,501.24c-7.76,0-16.05-5.84-21.6-15.91-4.52-8.11-5.96-16.25-4.05-22.9,1.29-4.51,4.01-8.01,7.85-10.13,3.59-1.98,7.36-2.48,10.56-1.5l-12.01-21.8,12.82-7.06,27.82,50.51c2.67,4.85,5.61,9.85,7.35,12.65l.54.87-11.55,6.36-2.92-4.42c-.52,4.91-3.25,9.08-7.61,11.49-2.27,1.25-4.7,1.85-7.18,1.85ZM364.23,452.25c-2.02,0-4.18.58-6.29,1.75-3.38,1.86-5.77,4.96-6.92,8.96-1.77,6.16-.39,13.77,3.88,21.43,6.79,12.32,17.78,17.91,26.15,13.3,4.53-2.49,7.02-7.19,6.67-12.56l-.04-.62,1.47-.81,4,6.06,8.21-4.52c-1.78-2.92-4.43-7.46-6.86-11.87l-26.88-48.81-9.43,5.19,12.85,23.34-1.5.82-.48-.31c-1.4-.91-3.05-1.36-4.82-1.36ZM375.83,487.79c-1.43,0-2.89-.39-4.35-1.18-2.68-1.45-5.19-4.19-7.25-7.93-2-3.63-3.02-7.17-2.94-10.23.08-3.46,1.56-6.07,4.26-7.56,3.6-1.98,8.17-.67,11.37,3.25.5.71,1.13,1.68,1.55,2.44h0s3.1,5.64,3.1,5.64c.72,1.3,1.18,2.36,1.49,3.44,1.59,4.63.25,9.1-3.36,11.09-1.24.68-2.55,1.03-3.88,1.03ZM369.12,461.92c-.88,0-1.77.21-2.63.68-2.1,1.16-3.2,3.14-3.26,5.91-.07,2.68.89,5.96,2.7,9.24,1.88,3.41,4.12,5.88,6.47,7.16,2.2,1.19,4.4,1.24,6.37.16,2.76-1.52,3.74-5.06,2.45-8.81-.29-.99-.68-1.9-1.34-3.09l-3.1-5.64c-.38-.7-1-1.63-1.4-2.21-1.54-1.89-3.87-3.4-6.26-3.4Z"/>
    </g>
    <g>
      <path class="st1" d="M396.05,449.29c-4.62-5.57-7.76-9.1-10.59-12.24l8.42-6.98,6.1,6.7.26-.21c-2.95-6.83-1.01-12.35,2.01-14.85.9-.75,1.35-1.12,2.19-1.55l9.17,11.06c-.83.43-1.8.97-2.89,1.88-3.6,2.99-4.12,7.33-1.75,11.5.51.88,1.22,1.86,1.99,2.79l15.91,19.19-9.77,8.1-21.04-25.38Z"/>
      <path class="st5" d="M416.96,476.03l-21.66-26.12c-4.55-5.48-7.71-9.04-10.56-12.22l-.67-.75,9.91-8.22,4.21,4.62c-1.2-5.56.65-10.09,3.44-12.4.93-.77,1.43-1.19,2.36-1.67l.69-.36,10.44,12.59-1.07.55c-.82.42-1.71.93-2.72,1.76-3.14,2.6-3.71,6.44-1.52,10.28.46.79,1.14,1.74,1.89,2.65l16.53,19.93-11.26,9.34ZM386.86,437.15c2.69,3,5.72,6.44,9.94,11.52l20.42,24.63,8.28-6.87-15.29-18.44c-.83-1.01-1.55-2.02-2.08-2.92-2.65-4.66-1.89-9.53,1.97-12.73.72-.6,1.39-1.05,2.02-1.42l-7.9-9.53c-.4.26-.76.56-1.33,1.04-2.82,2.34-4.45,7.49-1.75,13.73l.29.67-1.53,1.27-6.09-6.7-6.94,5.75Z"/>
    </g>
    <g>
      <path class="st1" d="M453.49,402.85c13.57,11.81,12.82,25.23,5.63,33.48-7.84,9.01-21,9.74-32.98-.69-11.98-10.43-13.93-23.65-5.32-33.54,8.23-9.45,21.52-8.96,32.66.75ZM434.45,425.49c6.37,5.54,13.06,7.5,16.63,3.4,3.24-3.72.85-10.01-5.82-15.81-5.53-4.82-12.68-7.94-16.46-3.59-4,4.6.2,11.25,5.66,16Z"/>
      <path class="st5" d="M444.17,444.25c-6.29,0-12.74-2.72-18.66-7.87-12.37-10.77-14.5-24.47-5.41-34.9,4.21-4.84,9.73-7.3,15.99-7.14,6.13.17,12.37,2.86,18.03,7.79,6.46,5.62,10.24,12.09,10.93,18.7.61,5.86-1.24,11.59-5.2,16.14-4.08,4.69-9.64,7.27-15.67,7.28h-.02ZM435.5,396.26c-5.43,0-10.24,2.23-13.94,6.48-8.31,9.55-6.26,22.17,5.22,32.17,5.56,4.84,11.57,7.4,17.39,7.4h.02c5.46,0,10.5-2.35,14.21-6.61,3.61-4.14,5.29-9.35,4.73-14.67-.64-6.12-4.19-12.15-10.27-17.44h0c-5.32-4.63-11.14-7.16-16.82-7.32-.18,0-.36,0-.54,0ZM446.1,432.05c-.79,0-1.62-.1-2.49-.3-3.05-.7-6.43-2.61-9.78-5.53-3.09-2.69-5.44-5.67-6.63-8.4-1.51-3.47-1.21-6.57.88-8.97,2-2.29,4.96-2.96,8.57-1.94,2.89.82,6.18,2.75,9.26,5.43,3.41,2.97,5.79,6.11,6.9,9.08,1.17,3.15.82,6.02-.98,8.1-1.45,1.67-3.4,2.52-5.72,2.52ZM433.53,408.38c-1.66,0-3,.58-4.01,1.74-1.58,1.82-1.77,4.15-.56,6.92,1.08,2.47,3.25,5.21,6.13,7.71h0c3.11,2.71,6.2,4.47,8.95,5.1,2.72.62,4.84.08,6.32-1.61,1.69-1.94,1.27-4.41.63-6.15-.99-2.67-3.19-5.54-6.35-8.3-2.87-2.5-5.9-4.28-8.52-5.03-.93-.26-1.79-.39-2.57-.39Z"/>
    </g>
  </g>
  <g>
    <path class="st2" d="M185.25,381.86l46.65-22.06h9.88l6.66,11.03s13.33,35.62,27.34,39.98c0,0-53.31.23-90.53-28.95Z"/>
    <path class="st6" d="M275.77,411.3c-1.15,0-54.11-.28-90.82-29.06l-.62-.48,47.56-22.44h10.15l6.8,11.26c.17.44,13.44,35.52,27.07,39.77l3,.93h-3.14s0,.01-.02.01ZM186.17,381.97c32.07,24.73,76.25,27.9,87.12,28.31-13.15-7.12-24.79-37.89-25.31-39.27l-6.48-10.71h-9.5l-45.84,21.68Z"/>
  </g>
  <g>
    <path class="st2" d="M370.23,381.86l-46.65-22.06h-9.88s-6.66,11.03-6.66,11.03c0,0-13.33,35.62-27.34,39.98,0,0,53.31.23,90.53-28.95Z"/>
    <path class="st6" d="M279.71,411.3h-3.15s3-.95,3-.95c13.63-4.25,26.9-39.34,27.03-39.69l6.84-11.34,10.36.05,47.35,22.39-.62.48c-36.71,28.78-89.66,29.06-90.82,29.06ZM313.97,360.29l-6.52,10.8c-.48,1.31-12.12,32.07-25.27,39.19,10.88-.4,55.06-3.57,87.12-28.31l-45.84-21.68h-9.5Z"/>
  </g>
  <g>
    <g>
      <path class="st1" d="M54.98,286.54c1.25.67,2.33,1.41,2.98,2.5.99,1.65,1.57,3.39,1.19,5.27-.22,1.1-.44,2.21-.85,3.26-.59,1.5-1.75,2.65-3.43,3.42.5.33.95.69,1.47.95.23.11.59.06.88.02,3.12-.44,6.23-.93,9.36-1.32,1.81-.22,3.65-.3,5.48-.39,1.14-.06,2.12.44,3.12.82,1.31.49,2.43,1.23,3.45,2.09.71.6,1.05,1.36.73,2.24-.31.83-.92,1.35-1.92,1.55-1.07.22-2.12.14-3.16-.08-2.7-.57-5.44-.49-8.17-.42-1.39.04-2.78.03-4.16.06-1.71.04-3.42.09-5.13.14-.16,0-.31.05-.58.09.14.21.21.42.37.52,1.93,1.15,3.85,2.31,5.82,3.41,1.65.92,3.32,1.84,5.06,2.62,3.28,1.47,6.7,2.63,10.28,3.41.94.21,1.85.52,2.76.82.35.11.7.27.99.48.23.16.47.4.5.63.01.13-.37.38-.61.43-1.62.37-3.23.76-4.87,1.04-2.54.44-5.1.67-7.69.81-1.77.1-3.36-.13-4.67-1.17-.97-.77-1.83-1.65-2.68-2.52-1.06-1.09-2.04-2.23-3.08-3.33-.89-.94-1.83-1.86-2.74-2.78-.07-.07-.16-.12-.34-.26,0,.26,0,.42,0,.58.06,2.3.17,4.6.14,6.9-.01,1.06-.12,2.17-.52,3.15-.48,1.15-1.47,2.08-2.76,2.67-.98.45-2.08.1-2.7-.93-.87-1.44-1.79-2.88-2.09-4.53-.15-.81-.24-1.59.36-2.34.84-1.06.74-2.32.9-3.65-3.67,2.35-7.45,4.32-11.56,5.73-4.1,1.41-8.26,2.69-12.72,2.93,4.16-1.77,7.99-3.99,11.82-6.21,3.83-2.22,7.5-4.61,10.57-7.64-.03-.04-.05-.08-.08-.12-1.2.17-2.41.29-3.6.51-2.64.49-5.27.99-7.89,1.55-1.61.34-3.18.83-4.78,1.2-.26.06-.64-.04-.88-.18-1.38-.79-2.54-1.81-3.49-2.99-.36-.45-.69-.93-.97-1.42-.3-.52-.08-.77.58-.83,5.11-.49,10.23-.97,15.34-1.48,2.19-.22,4.37-.47,6.55-.71.17-.02.34-.05.52-.08-.34-.81-.68-1.57-.99-2.33-.29-.73.14-1.6,1.27-1.45,1.06.13,2.12.31,3.17.47.15.02.3.07.54,0-.7-.79-1.37-1.61-2.12-2.36-.74-.75-1.54-1.44-2.34-2.15-.25-.22-.46-.44-.2-.73.25-.27.59-.33.96-.15.72.36,1.5.42,2.29.32.81-.1,1.48-.81,1.52-1.69.03-.87-.06-1.75-.18-2.67-6.52,5-14.1,7.81-22.54,8.95-.03-.05-.06-.1-.09-.16.33-.17.68-.32,1-.5,1.61-.92,3.23-1.83,4.82-2.78,1.64-.97,3.23-2,4.87-2.97,1.3-.78,4.83-3.71,5.73-4.84-1.03.2-1.99.38-2.94.58-2.34.49-4.67,1.02-7.02,1.48-.85.17-1.75.24-2.62.21-.5-.02-1.1-.21-1.45-.51-.68-.57-1.22-1.27-1.8-1.93-.11-.12-.17-.28-.22-.43-.22-.69-.06-.91.76-1,3.6-.43,7.21-.8,10.8-1.3,2.73-.39,5.43-.95,8.14-1.43.09-.02.17-.05.21-.06-.95-1.36-1.9-2.71-2.84-4.07-.15-.21-.28-.44-.38-.68-.22-.5-.02-.78.6-.77.74.02,1.48.05,2.2.17,1.25.22,2.48.5,3.71.78.36.08.57.07.84-.23.71-.77,1.51-1.47,2.27-2.21.29-.29.79-.6.53-.98-.14-.2-.73-.23-1.12-.24-2.32-.02-4.56.47-6.8.93-2.02.41-4.03.84-6.02,1.34-1.53.39-2.78.06-3.92-.83-1.02-.8-2.01-1.64-2.62-2.73-.16-.3-.26-.76-.1-1.01.12-.18.74-.24,1.07-.15,1.38.35,2.78.41,4.18.3,2.86-.23,5.72-.54,8.58-.85,2.99-.33,5.82-1.16,8.61-2.13.35-.12.87-.03,1.24.1,2.15.76,4.13,1.78,5.94,3.04.82.57,1.55,1.26,2.29,1.91.18.16.29.4.37.62.16.44,0,.79-.5.95-.64.2-1.31.36-1.97.49-2.78.55-5.44,1.37-8.03,2.4-.71.28-1.44.52-2.07.75v1.94c.84-.22,1.75-.45,2.66-.68,1.89-.49,3.77-1.01,5.67-1.46,1.37-.32,2.73-.2,4.06.28,2.71.98,5.3,2.15,7.55,3.81.5.37.95.82,1.32,1.29.41.53.22,1-.42,1.3-.38.17-.79.32-1.21.39-3.61.55-7.01,1.66-10.41,2.79-.52.17-1.04.36-1.57.49-.17.04-.38-.06-.57-.09.04-.15.03-.33.12-.45.53-.73,1.09-1.43,1.62-2.16.16-.22.28-.48.37-.73.33-.93-.19-1.64-1.3-1.67-.75-.02-1.5.09-2.24.18-2.04.27-4.07.56-6.11.84-.05,0-.09.03-.23.07Z"/>
      <path class="st2" d="M51.34,324.8c-.89,0-1.74-.49-2.27-1.36l-.17-.29c-.83-1.36-1.68-2.78-1.98-4.4-.16-.89-.26-1.83.45-2.73.54-.69.63-1.49.71-2.41-3.73,2.31-7.28,4.03-10.83,5.25-3.96,1.36-8.21,2.71-12.85,2.96l-2.75.15,2.53-1.08c4.1-1.74,7.95-3.97,11.68-6.13l.09-.05c3.05-1.76,6.52-3.92,9.55-6.69-.77.1-1.57.2-2.33.35-2.5.46-5.18.97-7.88,1.55-.9.19-1.8.43-2.68.66-.69.18-1.39.37-2.09.53-.41.1-.92-.04-1.24-.23-1.4-.8-2.62-1.85-3.63-3.11-.38-.48-.72-.97-1.01-1.48-.22-.38-.25-.72-.11-1.01.24-.47.86-.52,1.06-.54,5.11-.49,10.23-.98,15.34-1.48,1.54-.15,3.08-.32,4.63-.49l1.8-.2-.07-.16c-.23-.54-.46-1.07-.67-1.61-.21-.54-.15-1.13.18-1.55.2-.26.68-.68,1.6-.56.8.1,1.59.22,2.38.35l.11.02c-.42-.48-.85-.97-1.3-1.43-.61-.62-1.3-1.22-1.95-1.81l-.36-.32c-.17-.15-.46-.41-.48-.79,0-.15.03-.39.24-.63.02-.02.03-.04.05-.05-5.14,2.88-10.94,4.73-17.58,5.63l-.33.04-.41-.73.37-.38.31-.15c.22-.11.45-.21.66-.34l.93-.53c1.3-.74,2.6-1.48,3.89-2.25.84-.5,1.67-1.01,2.5-1.52.79-.49,1.57-.97,2.37-1.45.94-.56,3.16-2.35,4.56-3.66-.48.09-.96.19-1.43.28-.81.17-1.61.34-2.42.52-1.54.33-3.07.66-4.61.96-.88.17-1.83.24-2.73.22-.63-.02-1.33-.27-1.75-.63-.54-.46-.99-.99-1.43-1.5-.14-.16-.28-.32-.42-.48-.17-.19-.25-.41-.31-.61-.11-.35-.2-.76.03-1.11.24-.37.68-.46,1.13-.52,1.07-.13,2.15-.25,3.22-.37,2.48-.28,5.05-.58,7.56-.93,1.89-.27,3.81-.63,5.66-.98.65-.12,1.29-.24,1.94-.36l-.32-.46c-.7-1.01-1.41-2.01-2.1-3.02-.17-.24-.31-.5-.43-.76-.22-.5-.11-.83.02-1.02.2-.29.53-.42,1.04-.42.81.02,1.54.05,2.27.18,1.09.19,2.18.43,3.23.67l.5.11c.25.06.26.05.38-.08.48-.53,1.01-1.02,1.52-1.5.26-.24.51-.48.76-.73.06-.06.12-.11.18-.17.06-.05.13-.12.19-.18-.12-.02-.31-.04-.63-.04-2.12-.04-4.24.41-6.29.83l-.41.09c-1.94.4-4,.83-6,1.34-1.61.41-3.03.11-4.34-.92-1.02-.8-2.08-1.69-2.74-2.88-.24-.42-.36-1.08-.09-1.5.31-.47,1.26-.45,1.6-.36,1.22.31,2.54.41,4.02.29,2.7-.22,5.38-.5,8.56-.85,3.22-.36,6.24-1.31,8.5-2.11.59-.21,1.35.02,1.56.1,2.15.76,4.19,1.8,6.06,3.1.7.49,1.33,1.05,1.94,1.6l.39.35c.26.23.41.56.5.82.16.43.08.76-.02.96-.1.2-.32.48-.8.63-.6.19-1.27.35-2.02.5-2.64.52-5.24,1.3-7.94,2.38-.49.2-1,.37-1.47.54l-.3.1v.97l3.8-.98c1.31-.35,2.61-.69,3.93-1,1.41-.33,2.87-.23,4.34.29,3.24,1.17,5.68,2.4,7.67,3.88.53.39,1.02.87,1.41,1.38.35.45.35.85.29,1.1-.07.27-.28.66-.89.94-.49.22-.93.36-1.34.42-3.62.55-7.03,1.68-10.33,2.77l-.29.1c-.43.15-.87.29-1.31.4-.24.06-.46,0-.64-.05-.05-.01-.1-.03-.14-.03l-.51-.09.13-.5s.01-.07.02-.1c.02-.14.05-.33.18-.51.26-.36.53-.71.79-1.06.28-.37.56-.73.83-1.1.12-.16.22-.36.3-.61.07-.2.12-.48-.02-.7-.14-.2-.43-.32-.83-.33-.64-.02-1.31.07-1.96.15l-.21.03c-1.54.2-3.09.42-4.63.63l-.39.05c.77.51,1.51,1.15,2.01,1.99,1.2,2,1.61,3.84,1.25,5.62l-.02.12c-.21,1.07-.44,2.17-.85,3.22-.54,1.38-1.53,2.49-2.94,3.3.25.17.49.33.74.45.1.04.43,0,.59-.03,1.08-.15,2.16-.31,3.23-.47,2.01-.3,4.09-.6,6.15-.85,1.61-.2,3.27-.28,4.86-.36l.65-.03c1.05-.06,1.95.31,2.82.65.17.07.34.13.5.2,1.24.47,2.41,1.18,3.59,2.17.93.79,1.24,1.77.87,2.78-.37,1-1.13,1.62-2.28,1.86-1.01.21-2.11.18-3.35-.08-2.61-.55-5.33-.48-7.95-.41h-.11c-.74.02-1.49.03-2.23.04-.64,0-1.29.01-1.93.03-1.54.03-3.07.08-4.61.12h-.03s.45.27.45.27c1.6.95,3.24,1.94,4.9,2.86,1.66.93,3.3,1.82,5.02,2.6,3.33,1.49,6.75,2.63,10.19,3.38.82.18,1.61.44,2.38.69l.43.14c.41.13.8.32,1.12.54.19.14.65.5.7.98.06.58-.77.91-.98.96l-.49.11c-1.44.33-2.92.68-4.41.94-2.23.39-4.62.64-7.75.82-2.16.12-3.75-.28-4.99-1.28-.95-.76-1.76-1.57-2.73-2.57-.59-.61-1.16-1.24-1.74-1.87-.45-.49-.89-.99-1.35-1.47-.65-.68-1.32-1.35-1.98-2.02l-.25-.25c.01.49.03.98.04,1.48.05,1.61.1,3.27.08,4.9-.01.88-.08,2.18-.56,3.33-.51,1.23-1.58,2.27-3.01,2.93-.35.16-.7.23-1.05.23ZM49.27,311.71l-.13,1.03c-.04.28-.06.56-.08.84-.09,1.04-.18,2.11-.92,3.05-.47.59-.4,1.21-.26,1.95.26,1.45,1.04,2.73,1.86,4.07l.18.29c.49.81,1.31,1.1,2.09.74,1.2-.55,2.1-1.41,2.52-2.42.42-1,.48-2.17.49-2.97.02-1.62-.03-3.27-.08-4.86-.02-.68-.04-1.35-.06-2.03,0-.11,0-.22,0-.35v-1.22s.94.72.94.72c.1.07.17.13.23.18l.75.75c.67.68,1.35,1.35,2,2.04.46.49.92.99,1.37,1.49.56.62,1.13,1.24,1.71,1.84.94.96,1.73,1.76,2.64,2.48,1.07.85,2.4,1.18,4.34,1.07,3.09-.17,5.44-.42,7.63-.81,1.46-.26,2.93-.6,4.35-.93l.49-.11s.08-.03.12-.05c-.05-.04-.1-.09-.17-.14-.24-.17-.54-.31-.86-.41l-.43-.14c-.75-.24-1.52-.49-2.28-.66-3.5-.77-6.99-1.93-10.37-3.44-1.76-.79-3.42-1.7-5.1-2.63-1.67-.93-3.32-1.92-4.92-2.88l-.91-.54c-.22-.13-.33-.33-.42-.49-.03-.05-.06-.11-.1-.17l-.43-.63.98-.17c.16-.03.29-.05.41-.06l.52-.02c1.54-.05,3.08-.09,4.62-.12.65-.01,1.29-.02,1.94-.03.74,0,1.48-.01,2.22-.03h.11c2.68-.07,5.46-.14,8.18.43,1.13.24,2.07.26,2.96.08.82-.17,1.32-.56,1.57-1.24.23-.62.04-1.18-.58-1.71-1.09-.92-2.17-1.58-3.31-2.01-.17-.07-.35-.14-.52-.2-.81-.32-1.57-.62-2.41-.59l-.66.03c-1.58.08-3.21.16-4.79.35-2.05.25-4.12.56-6.13.85-1.07.16-2.15.32-3.23.47-.36.05-.81.11-1.17-.06-.4-.2-.75-.45-1.1-.69-.14-.1-.27-.19-.42-.29l-.72-.48.79-.36c1.57-.73,2.64-1.79,3.18-3.16.38-.97.6-2.03.8-3.05l.02-.12c.31-1.55-.05-3.12-1.13-4.93-.63-1.05-1.72-1.74-2.8-2.32l-1.01-.55,1.21-.38c.09-.03.14-.04.19-.05l1.47-.21c1.55-.22,3.09-.43,4.64-.63l.2-.03c.69-.09,1.4-.18,2.12-.16.72.02,1.28.29,1.6.75.29.43.34.99.14,1.57-.12.34-.26.62-.43.85-.27.38-.56.75-.84,1.12-.19.25-.38.5-.57.76.32-.09.64-.2.97-.31l.3-.1c3.34-1.11,6.79-2.25,10.49-2.81.32-.05.68-.16,1.08-.35.23-.11.34-.22.35-.29.02-.06-.03-.16-.11-.27-.34-.44-.77-.86-1.22-1.2-1.92-1.42-4.28-2.61-7.43-3.74-1.3-.47-2.54-.56-3.79-.26-1.31.31-2.61.65-3.91,1l-5.02,1.29v-2.9l.94-.34c.46-.16.95-.33,1.43-.52,2.76-1.1,5.42-1.9,8.11-2.43.72-.14,1.35-.3,1.92-.48.13-.04.2-.09.22-.13.02-.04.01-.11-.02-.19-.06-.15-.13-.34-.24-.43l-.39-.35c-.59-.53-1.19-1.07-1.85-1.52-1.8-1.25-3.76-2.26-5.83-2.98-.35-.12-.73-.16-.92-.1-2.31.81-5.4,1.79-8.72,2.16-3.19.35-5.87.63-8.59.85-1.59.13-3.01.03-4.34-.31-.15-.04-.41-.02-.55,0,0,.1.04.28.13.45.57,1.03,1.55,1.84,2.49,2.58,1.08.84,2.19,1.08,3.51.75,2.02-.51,4.09-.95,6.04-1.35l.41-.08c2.09-.43,4.27-.89,6.49-.85.74,0,1.27.09,1.52.45.45.67-.18,1.23-.45,1.47-.05.05-.1.09-.15.13-.25.25-.51.49-.78.74-.5.47-1.01.95-1.47,1.45-.42.46-.83.49-1.31.38l-.5-.11c-1.04-.23-2.12-.48-3.19-.66-.67-.12-1.36-.14-2.13-.16-.08,0-.13,0-.17,0,0,.02.02.05.03.08.09.2.2.4.34.6.7,1.01,1.4,2.01,2.1,3.02l1.11,1.6-.63.2c-.08.03-.17.06-.26.08-.82.15-1.63.3-2.45.45-1.86.35-3.79.71-5.71.98-2.52.36-5.1.65-7.59.93-1.07.12-2.15.24-3.22.37-.28.03-.39.07-.43.09.01.01.02.1.08.28.02.05.06.2.12.26.15.16.29.33.43.5.43.5.84.98,1.32,1.39.26.22.74.38,1.15.4.83.03,1.7-.04,2.51-.2,1.54-.3,3.06-.63,4.59-.96.81-.17,1.61-.35,2.42-.52.65-.14,1.31-.26,1.99-.39l2.25-.44-.82,1.03c-.95,1.19-4.5,4.14-5.86,4.95-.79.47-1.57.96-2.36,1.44-.83.52-1.67,1.03-2.51,1.53-1.25.75-2.52,1.47-3.8,2.19,7.8-1.36,14.38-4.15,20.06-8.51l.67-.51.1.84c.12.93.22,1.84.18,2.75-.04,1.1-.88,2.02-1.94,2.15-1,.12-1.84,0-2.57-.37-.15-.07-.25-.06-.32-.01.03.03.06.06.1.09l.36.32c.67.59,1.36,1.21,2,1.85.53.54,1.02,1.11,1.5,1.66.21.24.42.48.63.72l.53.6-.78.19c-.31.07-.52.04-.67.01l-.87-.13c-.78-.12-1.57-.24-2.35-.34-.33-.05-.58.03-.72.19-.12.15-.13.38-.05.6.21.53.44,1.05.67,1.58l.56,1.31-.76.12c-.13.02-.26.04-.39.06l-1.92.21c-1.55.17-3.09.34-4.64.5-5.11.5-10.23.99-15.34,1.48-.11.01-.19.03-.24.04,0,.02.02.04.04.07.26.46.58.92.92,1.36.93,1.16,2.06,2.13,3.35,2.87.17.1.43.15.53.12.69-.16,1.38-.34,2.06-.53.89-.24,1.8-.48,2.72-.68,2.71-.58,5.4-1.09,7.91-1.55.83-.15,1.68-.26,2.51-.37.37-.05.74-.1,1.11-.15l.31-.04.46.71-.28.28c-3.32,3.27-7.25,5.74-10.66,7.71l-.09.05c-2.92,1.69-5.92,3.43-9.07,4.95,3.41-.52,6.62-1.56,9.65-2.6,3.74-1.28,7.49-3.14,11.46-5.68l.87-.56ZM47.96,293.66c.2,0,.42.05.62.16.56.28,1.22.37,2.02.27.6-.07,1.07-.6,1.09-1.23.02-.58-.02-1.16-.08-1.76-1.27.94-2.59,1.8-3.95,2.59.09-.02.19-.04.29-.04ZM36.3,273.32h0Z"/>
    </g>
    <g>
      <g>
        <path class="st1" d="M502.14,282.67c.28.23.55.42.78.64.47.48.46.82-.05,1.26-.29.25-.61.46-.91.68-.54.4-1.07.8-1.61,1.2.02.04.03.08.05.12.8-.18,1.6-.39,2.41-.54.95-.18,1.91-.5,2.85-.45,2.44.15,4.79.7,6.92,1.97.61.36,1.22.72,1.78,1.15.62.48.88,1.14.67,1.94-.24.9-.5,1.81-.69,2.72-.43,2.07-.3,4.17-.21,6.27.1,2.27.28,4.57.02,6.8-.22,1.87-1.12,3.6-2.85,4.69-1.38.86-2.12.77-3.21-.45-.2-.22-.42-.44-.54-.7-.32-.66-.84-.79-1.52-.74-3.28.28-6.55.54-9.83.81-.1,0-.21.03-.31.04-1.03.02-1.93.21-2.8.94-1.36,1.15-2.75.85-3.66-.68-.81-1.37-1.55-2.79-1.82-4.39-.03-.2-.03-.43.04-.61.64-1.6.84-3.27.91-4.99.12-2.94-.04-5.86-.55-8.75-.16-.92-.5-1.8-.75-2.7-.07-.23-.15-.46-.19-.7-.11-.62.19-1.13.81-1.14.8-.01,1.62.09,2.4.25.57.11,1.14.32,1.66.59.49.25.93.17,1.44.12.91-.1,1.32-.52,1.38-1.42.04-.57.23-1.12.31-1.68.04-.3.02-.63-.03-.93-.07-.36-.26-.54-.7-.45-1.68.36-3.38.6-5.04,1.04-1.16.31-2.06.09-2.81-.77-.76-.87-1.48-1.78-2.21-2.68-.06-.08-.11-.18-.15-.27-.38-.84-.29-1.02.58-1.16,4.12-.65,8.26-1.21,12.36-1.96,3.2-.58,6.36-1.39,9.54-2.11,2.04-.46,4.07-.86,6.16-.32,1.78.45,3.33,1.25,4.48,2.72.27.35.48.76.7,1.15.67,1.24-1.02,3.12-2.23,3.08-1.52-.06-3.05,0-4.58.04-2.96.08-5.92.19-8.88.29-.03,0-.06.03-.12.07ZM494.43,299.85c1.03-.16,2.01-.26,2.97-.47,1.55-.33,3.07-.42,4.61.08,1.46.47,2.12,1.48,2.29,2.95.05.47-.11.65-.52.7-2.17.25-4.33.5-6.5.73-.87.09-1.75.13-2.68.19.05.77.1,1.51.15,2.33,3.74-.49,7.4-.98,11.08-1.46,0-.33,0-.51,0-.7,0-3.23.04-6.46-.02-9.69-.02-.88-.25-1.79-.55-2.62-.34-.91-1.02-1.59-2.08-1.64-.53-.03-1.08.02-1.6.1-2.29.37-4.58.76-6.86,1.15-.11.02-.28.17-.29.27-.03.61-.01,1.23-.01,1.89,1.27-.3,2.52-.54,3.73-.91,1.2-.36,2.37-.27,3.52.06,1.29.36,2.27,1.08,2.53,2.51.04.24.05.48.09.72.08.44-.15.61-.53.66-3.11.42-6.19,1.03-9.34,1.09v2.07Z"/>
        <path class="st2" d="M491.44,312.22c-.13,0-.26-.01-.38-.03-.8-.13-1.5-.68-2.04-1.58-.76-1.28-1.58-2.82-1.89-4.55-.03-.18-.07-.54.07-.87.67-1.69.82-3.47.88-4.83.12-3-.06-5.91-.54-8.65-.1-.6-.29-1.18-.48-1.79-.09-.29-.18-.57-.26-.86l-.06-.2c-.06-.18-.11-.36-.14-.55-.08-.48.02-.93.29-1.25.24-.29.59-.45.99-.46.74-.01,1.54.07,2.51.26.58.11,1.2.33,1.79.64.31.16.61.13,1.02.08l.15-.02c.67-.07.9-.31.94-.97.02-.37.1-.71.18-1.05.05-.22.1-.45.14-.67.03-.23.02-.5-.03-.77,0-.04-.02-.07-.02-.09-.01,0-.05,0-.1.02-.63.13-1.26.25-1.89.37-1.03.19-2.1.39-3.12.66-1.35.36-2.44.06-3.3-.92-.56-.64-1.1-1.3-1.64-1.97l-.59-.72c-.11-.13-.17-.27-.22-.38-.19-.43-.37-.89-.16-1.28.21-.38.66-.49,1.1-.56,1.28-.2,2.56-.39,3.84-.59,2.8-.42,5.69-.86,8.51-1.37,2.32-.42,4.66-.97,6.92-1.5.87-.2,1.73-.41,2.6-.6,2.13-.48,4.22-.87,6.39-.32,2.09.53,3.64,1.48,4.74,2.9.28.36.49.75.69,1.13l.05.09c.34.64.26,1.45-.23,2.22-.6.95-1.6,1.56-2.45,1.57-1.32-.05-2.68,0-3.99.03l-.56.02c-2.22.06-4.44.14-6.65.21l-1.16.04c.2.22.42.53.41.93-.02.45-.33.77-.56.97-.21.18-.43.34-.65.49l-.32.23c.17-.04.33-.07.5-.1.25-.05.5-.1.74-.16.72-.17,1.47-.34,2.23-.29,2.8.17,5.13.84,7.14,2.04l.15.09c.56.34,1.14.68,1.68,1.1.8.62,1.1,1.48.84,2.45l-.16.59c-.19.69-.38,1.4-.53,2.1-.39,1.87-.3,3.74-.21,5.72l.07,1.46c.09,1.92.19,3.91-.03,5.85-.25,2.17-1.34,3.96-3.08,5.04-1.59.99-2.59.85-3.83-.54l-.09-.1c-.18-.2-.39-.43-.52-.71-.19-.4-.45-.51-1.04-.46-2.38.21-4.76.4-7.14.59l-2.78.23c-.08.01-.16.02-.24.02-1.1.02-1.82.26-2.49.83-.64.53-1.31.81-1.96.81ZM488.01,287.56s-.09,0-.13,0c-.18,0-.24.08-.26.11-.08.1-.11.28-.08.47.02.14.07.28.11.43l.07.23c.08.28.17.56.25.84.19.62.39,1.26.51,1.91.49,2.81.68,5.79.56,8.86-.06,1.44-.22,3.32-.95,5.15-.02.06-.04.19-.01.34.28,1.57,1.01,2.96,1.76,4.22.39.65.86,1.04,1.37,1.13.48.08,1.02-.11,1.56-.57,1.07-.9,2.17-1.04,3.1-1.05.04,0,.08,0,.11-.01.05,0,.11-.02.16-.02l2.69-.22c2.38-.19,4.76-.38,7.14-.59.62-.05,1.51,0,2,1.01.07.15.22.31.37.47l.1.11c.93,1.04,1.41,1.1,2.59.36,1.48-.93,2.41-2.46,2.63-4.33.22-1.86.12-3.81.03-5.7l-.07-1.46c-.09-1.95-.18-3.96.23-5.95.15-.73.35-1.46.54-2.16l.16-.59c.16-.59,0-1.05-.49-1.43-.49-.38-1.05-.71-1.59-1.03l-.15-.09c-1.87-1.12-4.07-1.75-6.7-1.9-.63-.04-1.27.11-1.95.27-.26.06-.52.12-.78.17-.55.11-1.09.23-1.63.36l-1.18.27-.27-.74.24-.34,1.92-1.43c.2-.14.4-.28.58-.44.22-.19.23-.27.23-.27,0,0,0-.08-.2-.29-.14-.14-.3-.27-.47-.4l-.81-.66.61-.35.24.42-.22-.44.12-.08.2-.03,2.23-.07c2.22-.07,4.44-.15,6.66-.21l.56-.02c1.33-.04,2.7-.08,4.05-.03.51.05,1.19-.47,1.59-1.11.14-.22.44-.8.19-1.25l-.05-.09c-.19-.36-.38-.7-.61-1-.97-1.26-2.31-2.07-4.21-2.55-1.96-.5-3.85-.15-5.93.32-.86.2-1.73.4-2.59.6-2.27.53-4.62,1.08-6.96,1.51-2.84.52-5.74.95-8.54,1.38-1.28.19-2.56.38-3.83.59-.19.03-.31.06-.37.08.02.07.06.19.16.4.03.06.06.13.09.17l.59.72c.53.65,1.06,1.31,1.61,1.94.62.71,1.32.89,2.32.62,1.06-.28,2.14-.48,3.19-.68.62-.12,1.25-.23,1.87-.37.33-.07.62-.03.85.12.22.15.37.39.43.72.07.38.08.75.04,1.08-.04.25-.09.51-.15.76-.07.31-.14.61-.16.89-.08,1.13-.67,1.75-1.81,1.87l-.14.02c-.49.06-1,.11-1.57-.18-.51-.26-1.04-.45-1.53-.55-.84-.16-1.54-.24-2.18-.24ZM494.31,306.91l-.22-3.33,1.35-.09c.61-.04,1.2-.07,1.79-.13,1.8-.19,3.6-.4,5.4-.61l1.09-.13c.05,0,.09-.01.11-.02,0-.02,0-.06-.01-.14-.15-1.38-.76-2.16-1.95-2.54-1.28-.41-2.63-.43-4.36-.07-.67.14-1.34.23-2.04.33-.31.04-.63.09-.96.14l-.56.09v-3.11h.47c2.29-.05,4.61-.4,6.84-.74.81-.12,1.62-.25,2.44-.36.12-.02.16-.04.16-.04-.06-.18-.08-.32-.09-.45-.01-.1-.02-.21-.04-.31-.2-1.09-.9-1.76-2.19-2.13-1.22-.35-2.26-.37-3.25-.06-.85.26-1.73.46-2.59.65-.39.09-.78.17-1.17.27l-.6.14v-1.1c0-.49,0-.96.02-1.43.01-.35.37-.67.69-.73,2.29-.4,4.58-.79,6.87-1.15.61-.1,1.18-.13,1.7-.1,1.15.06,2.07.77,2.51,1.96.37,1,.57,1.94.58,2.78.05,2.34.04,4.71.03,7.01v3.82s-12.02,1.59-12.02,1.59ZM495.12,304.48l.09,1.33,10.15-1.34v-2.98c.01-2.29.02-4.66-.02-6.99-.01-.73-.19-1.56-.52-2.46-.21-.58-.67-1.28-1.65-1.33-.46-.02-.96,0-1.5.09-2.25.36-4.5.74-6.75,1.13-.01.36-.01.72,0,1.09.2-.05.39-.09.59-.13.87-.2,1.7-.38,2.52-.63,1.16-.35,2.41-.33,3.8.06,1.64.46,2.61,1.43,2.88,2.89.02.13.04.26.05.39.01.11.02.21.04.32.06.32.01.59-.14.81-.16.23-.43.37-.8.42-.81.11-1.62.23-2.42.35-2.12.32-4.3.65-6.49.73v1.04c.14-.02.28-.04.41-.06.69-.1,1.34-.19,1.98-.32,1.88-.4,3.43-.37,4.86.09,1.57.5,2.43,1.6,2.62,3.36.08.72-.26,1.15-.95,1.23l-1.09.12c-1.8.21-3.61.42-5.41.61-.6.06-1.21.1-1.83.14l-.38.02ZM494.92,291.78s0,0,0,0c0,0,0,0,0,0Z"/>
      </g>
      <g>
        <path class="st1" d="M480.91,310.66c.72.11,1.42.18,2.1.33,3.5.75,6.98,1.58,10.49,2.28,2.63.52,5.28.92,7.93,1.32,3.1.47,6.23.65,9.37.68,1.47.01,2.95.07,4.42.1,2.6.04,5.2.07,7.81.11.35,0,.69.07,1.04.05.43-.02.73.09.88.54.16.48-.03.77-.42,1-1.54.9-3.05,1.85-4.62,2.69-3.33,1.78-6.86,3.1-10.48,4.14-1.18.34-2.4.63-3.62.28-1.82-.52-3.64-1.08-5.43-1.72-2.63-.94-5.22-2-7.85-2.95-4.07-1.47-8.15-2.94-12.37-3.94-2.23-.52-4.4-.2-6.53.53-.8.27-1.64.47-2.4.82-1.02.47-1.93.33-2.68-.4-1.16-1.14-2.28-2.34-2.78-3.95-.43-1.39-.29-1.54,1.12-1.63,2.44-.14,4.87-.32,7.31-.49.22-.02.45-.03.67-.03.68,0,.67-.02.68-.71,0-1.55-.62-2.94-1.07-4.38-.38-1.23-.96-2.36-1.62-3.47-.49-.81-.62-1.83-.43-2.78.35-1.75.81-3.48,1.2-5.22.06-.25.09-.64-.05-.76-.3-.27-.6-.04-.84.23-1.24,1.42-3.07,1.03-4.52.2-.77-.44-1.42-1.06-1.59-2.02-.11-.59-.03-.74.58-.74,1.69,0,3.19-.59,4.62-1.42,1-.58,1.77-1.4,2.37-2.36.55-.88,1.3-1.04,2.23-.83,1.96.43,3.91.93,5.58,2.12.78.55,1.48,1.19,1.52,2.23.01.33-.1.74-.3.97-.31.35-.75.6-1.15.87-.72.47-1.52.85-2.18,1.4-.45.37-.79.92-1.04,1.45-.52,1.13-.99,2.28-1.41,3.45-.34.96-.1,1.46.65,2.15.98.9,1.98,1.8,2.84,2.82.66.78,1.18,1.7,1.29,2.79.09.82-.1,1.58-.4,2.32-.26.64-.59,1.25-.93,1.94Z"/>
        <path class="st2" d="M506.98,324.81c-.43,0-.86-.05-1.29-.17-2.11-.6-3.84-1.15-5.45-1.73-1.35-.48-2.68-.99-4.02-1.51-1.27-.49-2.55-.98-3.83-1.44l-.26-.09c-3.91-1.41-7.95-2.86-12.06-3.83-1.92-.45-3.91-.28-6.26.52-.28.1-.57.18-.85.27-.53.16-1.03.31-1.51.53-1.19.55-2.34.37-3.22-.49-1.17-1.15-2.36-2.41-2.9-4.16-.22-.71-.37-1.29-.07-1.72.3-.42.86-.49,1.63-.53,1.68-.1,3.37-.21,5.05-.33l2.25-.16c.23-.02.47-.03.7-.03.06,0,.13,0,.19,0,0-.07,0-.14,0-.22,0-1.13-.35-2.17-.72-3.26-.11-.33-.22-.65-.32-.98-.33-1.05-.83-2.12-1.58-3.37-.53-.88-.71-2.02-.49-3.12.22-1.09.48-2.19.74-3.25.16-.66.32-1.32.47-1.98.02-.07.03-.14.03-.19-.02.02-.05.05-.08.08-1.2,1.38-3.07,1.48-5.13.3-1.05-.61-1.65-1.38-1.83-2.35-.06-.33-.1-.71.14-1,.23-.28.58-.31.92-.31,1.4,0,2.79-.43,4.38-1.35.86-.5,1.6-1.24,2.21-2.2.62-.98,1.51-1.32,2.75-1.05,2.04.45,4.01.95,5.76,2.2.87.62,1.67,1.36,1.72,2.6.01.37-.09.93-.43,1.31-.31.35-.69.6-1.07.83l-.19.12c-.26.17-.52.32-.79.48-.48.28-.94.55-1.34.89-.33.28-.65.72-.91,1.29-.5,1.08-.97,2.23-1.4,3.41-.25.71-.16,1.01.52,1.62,1.02.93,2.02,1.84,2.88,2.86.83.99,1.29,1.98,1.41,3.05.09.8-.05,1.61-.44,2.55-.18.45-.4.89-.63,1.35v.03s0,0,0,0c.49.07.98.13,1.46.24,1.25.27,2.5.55,3.75.83,2.2.49,4.49,1,6.74,1.45,2.53.5,5.13.89,7.65,1.27l.26.04c2.84.43,5.88.65,9.3.67.84,0,1.67.03,2.51.05.64.02,1.28.04,1.91.05,1.5.02,3,.04,4.5.06l3.3.04c.16,0,.31.02.47.03.18.01.36.03.54.02.7-.01,1.16.26,1.36.87.12.37.21,1.07-.63,1.57-.46.27-.92.55-1.38.82-1.05.63-2.14,1.29-3.25,1.88-3.15,1.68-6.61,3.04-10.58,4.17-.83.24-1.71.46-2.6.46ZM477.95,314.83c.8,0,1.58.09,2.34.27,4.16.98,8.23,2.44,12.16,3.86l.26.09c1.29.46,2.57.96,3.85,1.45,1.33.51,2.66,1.02,4,1.5,1.59.57,3.31,1.11,5.4,1.71,1.09.31,2.21.04,3.35-.28,3.9-1.11,7.3-2.46,10.39-4.1,1.09-.58,2.16-1.23,3.21-1.85.46-.28.93-.56,1.39-.83.27-.16.26-.26.2-.42-.05-.15-.07-.23-.4-.21-.21,0-.44,0-.66-.03-.14-.01-.27-.02-.41-.02l-3.3-.04c-1.5-.02-3-.04-4.5-.06-.64-.01-1.28-.03-1.93-.05-.83-.02-1.66-.05-2.49-.05-3.47-.03-6.56-.25-9.44-.68l-.26-.04c-2.53-.38-5.14-.77-7.7-1.28-2.26-.45-4.55-.96-6.76-1.45-1.25-.28-2.5-.56-3.75-.83-.45-.1-.92-.16-1.39-.22-.23-.03-.46-.06-.69-.1l-.65-.1.29-.59c.11-.22.21-.43.32-.64.22-.44.43-.85.6-1.28.32-.79.44-1.45.37-2.09-.09-.86-.48-1.69-1.18-2.52-.82-.97-1.79-1.86-2.73-2.72-.86-.79-1.27-1.49-.83-2.72.43-1.21.91-2.38,1.43-3.49.33-.71.72-1.25,1.17-1.62.46-.38.97-.68,1.47-.98.25-.15.51-.3.75-.46l.19-.12c.33-.21.64-.41.86-.66.11-.12.19-.41.18-.64-.03-.78-.53-1.29-1.32-1.85-1.6-1.14-3.46-1.62-5.4-2.04-.84-.19-1.32-.01-1.72.62-.69,1.1-1.54,1.94-2.54,2.52-1.74,1.01-3.29,1.48-4.86,1.48-.05,0-.09,0-.13,0,0,.04.01.1.03.17.12.68.56,1.22,1.36,1.68.95.55,2.72,1.27,3.91-.1.29-.33.57-.49.87-.51.17,0,.42.02.66.24.34.31.27.9.19,1.23-.15.66-.31,1.33-.47,1.99-.25,1.05-.52,2.14-.73,3.21-.17.87-.04,1.75.37,2.43.79,1.32,1.32,2.46,1.67,3.58.1.32.21.64.32.95.38,1.12.78,2.29.77,3.57,0,.96-.22,1.18-1.16,1.19-.22,0-.43.01-.65.03l-2.25.16c-1.69.12-3.37.23-5.06.33-.52.03-.82.07-.9.13,0,.03.02.24.21.87.47,1.53,1.57,2.69,2.65,3.75.61.59,1.31.69,2.14.31.53-.24,1.09-.41,1.63-.58.27-.08.55-.17.82-.26,1.59-.54,3.07-.81,4.47-.81Z"/>
      </g>
      <g>
        <path class="st1" d="M471.32,270.87c3.1.26,6.13.85,8.95,2.25,1.68.84,2.23,3.2,1.25,4.88-.95,1.61-2.41,2.28-4.17,2.51-.71.09-1.24-.21-1.72-.68-1.61-1.6-2.89-3.45-4.05-5.38-.46-.77-.98-1.51-1.42-2.29-.15-.26-.24-.62-.18-.9.1-.41.51-.39.87-.38.16,0,.31,0,.47,0Z"/>
        <path class="st2" d="M477.09,281c-.65,0-1.24-.28-1.81-.84-1.43-1.41-2.7-3.1-4.12-5.48-.19-.32-.4-.64-.6-.96-.28-.44-.57-.89-.83-1.35-.18-.31-.33-.81-.23-1.25.18-.79.99-.77,1.34-.75.12,0,.22,0,.32,0h.17s.02,0,.02,0c3.7.31,6.6,1.04,9.12,2.3.87.43,1.52,1.24,1.83,2.26.33,1.12.2,2.33-.38,3.3-.92,1.57-2.4,2.47-4.53,2.74-.1.01-.21.02-.31.02ZM470.65,271.34c-.1,0-.19,0-.22.02,0,.09.04.34.15.53.25.44.53.87.8,1.3.21.32.41.65.61.98,1.38,2.3,2.6,3.93,3.97,5.29.45.44.84.61,1.31.54,1.83-.24,3.04-.96,3.82-2.27.43-.73.54-1.68.28-2.53-.23-.76-.7-1.35-1.33-1.66-2.41-1.2-5.19-1.9-8.75-2.2h-.12c-.11,0-.23,0-.34,0-.05,0-.12,0-.18,0Z"/>
      </g>
      <g>
        <path class="st1" d="M501.17,276.41c1.57-2.26,2.32-4.67,3.08-7.08.14-.44.04-.82-.11-1.24-.18-.47-.26-1-.27-1.51,0-.67.38-.97,1.06-1.02,1.59-.12,3.06.4,4.56.83,1.51.43,2.71,1.36,3.89,2.31.16.13.29.3.4.47.38.53.31.93-.3,1.15-1.99.72-3.59,2.07-5.39,3.11-1.94,1.12-3.88,2.27-6.03,2.98-.23.08-.5.01-.9.01Z"/>
        <path class="st2" d="M501.8,276.92c-.09,0-.19,0-.29-.01-.1,0-.21-.01-.34-.01h-.93l.53-.76c1.5-2.16,2.25-4.52,2.98-6.81l.04-.14c.09-.29.03-.56-.11-.93-.19-.52-.29-1.09-.3-1.67,0-.88.54-1.43,1.5-1.5,1.47-.11,2.83.29,4.14.67l.59.17c1.55.44,2.76,1.35,4.06,2.4.2.16.36.37.49.56.29.42.39.8.28,1.15-.1.33-.38.58-.81.74-1.27.46-2.36,1.18-3.52,1.94-.59.39-1.18.78-1.79,1.13l-.38.22c-1.81,1.04-3.68,2.12-5.73,2.8-.14.05-.28.06-.42.06ZM505.41,266.03c-.15,0-.29,0-.44.02-.57.04-.61.26-.61.53,0,.46.09.94.23,1.34.17.46.31.97.12,1.56l-.04.14c-.66,2.08-1.34,4.23-2.58,6.27,1.9-.65,3.67-1.67,5.38-2.66l.38-.22c.59-.34,1.17-.72,1.74-1.1,1.16-.76,2.35-1.55,3.73-2.05.17-.06.21-.11.21-.12,0,0,0-.09-.15-.3-.09-.13-.2-.28-.31-.37-1.22-.98-2.34-1.83-3.72-2.22l-.6-.17c-1.14-.33-2.22-.65-3.35-.65Z"/>
      </g>
      <g>
        <path class="st1" d="M498.24,273.21c.12.85-.32,1.55-.92,2.15-.84.83-1.87,1.29-3.06,1.37-.44.03-.81-.1-1.04-.45-.61-.92-1.26-1.82-1.77-2.8-.78-1.5-1.46-3.06-2.17-4.6-.24-.51-.01-.87.59-.79,1.28.18,2.57.37,3.81.71.96.26,1.86.73,2.76,1.16,1.31.63,1.86,1.74,1.81,3.24Z"/>
        <path class="st2" d="M494.14,277.22c-.72,0-1.12-.36-1.33-.67l-.36-.54c-.5-.74-1.01-1.5-1.43-2.31-.58-1.11-1.1-2.26-1.61-3.37l-.57-1.25c-.19-.42-.18-.82.03-1.11.13-.17.44-.44,1.06-.36,1.13.16,2.55.36,3.87.72.9.25,1.74.66,2.56,1.06l.29.14c1.43.69,2.13,1.92,2.08,3.65.11.87-.24,1.7-1.06,2.52-.92.91-2.05,1.42-3.37,1.51-.05,0-.1,0-.15,0ZM489.66,268.57s.03.06.05.11l.58,1.25c.5,1.1,1.02,2.24,1.59,3.33.39.76.89,1.5,1.38,2.21l.37.54c.08.12.23.26.61.24,1.08-.07,2-.49,2.75-1.23.62-.61.87-1.17.78-1.73v-.04s0-.04,0-.04c.05-1.37-.44-2.26-1.54-2.79l-.29-.14c-.78-.38-1.58-.77-2.39-.99-1.26-.35-2.64-.54-3.75-.7-.06,0-.1,0-.13,0Z"/>
      </g>
    </g>
  </g>
  <g>
    <path class="st0" d="M389.33,271.56s32.74-33.4,17.25-81.4l-21.46-8.63s-2.43,47.56-20.35,67.47l14.82,26.99,35.06,72.39-54.42-16.42-29.2-82.95s-21.62-14.43-60.66-13.94-63.1,14.77-63.1,14.77l-28.87,81.62-54.91,17.42,35.83-72.89,14.82-26.99c-17.92-19.91-20.35-67.47-20.35-67.47l-21.46,8.63c-15.48,48,17.25,81.4,17.25,81.4l-41.59,86.27,54.42,23.89,11.72-21.24,37.77-14.93,17.75,25.26h7.3l6.14,8.09h52.09l6.14-8.09h7.63l17.59-25.26,36.83,14.1,12.44,22.06,55.24-23.39-41.75-86.77Z"/>
    <path class="st4" d="M162.85,382.96l-56.14-24.65,41.73-86.58c-3.98-4.4-31.48-37.05-17.02-81.87l.14-.43,23.14-9.3.07,1.36c.02.47,2.62,47.45,20.1,66.87l.46.51-15.15,27.59-34.81,70.81,52.29-16.59,28.82-81.5.3-.18c.24-.14,24.73-14.41,63.58-14.9,38.9-.46,61,13.95,61.21,14.1l.27.18.11.3,29.03,82.49,51.83,15.64-34.1-70.4-15.13-27.55.46-.51c17.48-19.42,20.08-66.4,20.1-66.87l.07-1.35,23.14,9.3.14.43c14.46,44.83-13.04,77.47-17.02,81.87l41.91,87.09-56.98,24.12-12.7-22.51-35.8-13.7-17.44,25.05h-7.66l-6.14,8.09h-53.05l-6.14-8.09h-7.32l-17.6-25.05-36.74,14.52-11.98,21.7ZM326.2,344.37l37.86,14.5,12.19,21.62,53.51-22.66-41.6-86.46.47-.49c.32-.33,31.95-33.36,17.16-80l-19.79-7.96c-.54,7.98-3.99,47.68-20.06,66.2l14.49,26.39,36.04,74.42-57-17.2-.16-.46-29.09-82.63c-2.58-1.6-23.91-14.09-59.85-13.61-36.04.46-59.44,12.86-62.32,14.46l-28.91,81.74-57.54,18.25,36.84-74.92,14.51-26.43c-16.07-18.52-19.52-58.22-20.06-66.2l-19.79,7.96c-14.8,46.67,16.84,79.67,17.16,79.99l.48.49-41.45,85.98,52.69,23.13,11.46-20.77,38.8-15.34,17.9,25.47h7.28l6.14,8.09h51.13l6.14-8.09h7.61l17.73-25.47Z"/>
  </g>
  <g>
    <path class="st0" d="M376.4,159.63l-33.18-13.71s-3.1,31.85-3.98,35.39l-20.35-13.71h-.02c-.63-.45-1.1-1.08-1.36-1.81-6.88-19.41-25.89-33.36-48.27-33.36s-42.55,14.82-48.87,35.17l-20.35,14.59c-.88-3.54-3.98-36.27-3.98-36.27l-33.18,13.71c-11.5,61.94,20.79,89.36,20.79,89.36l27.43-30.08c-7.08-11.06-8.85-26.1-8.85-26.1l16.37-11.5c0,27.29,22.46,49.95,50.63,49.95s51.02-22.12,51.02-49.42l.39-.53,16.37,11.5s-1.77,15.04-8.85,26.1l27.43,30.08s32.3-27.43,20.79-89.36ZM269.25,223.78c-23.72,0-42.95-18.87-42.95-42.14s19.23-42.14,42.95-42.14,42.95,18.87,42.95,42.14-19.23,42.14-42.95,42.14Z"/>
    <path class="st4" d="M355.52,250.34l-28.56-31.32.4-.63c6.11-9.54,8.22-22.3,8.62-25.13l-14.76-10.37c-.58,27.3-23.67,49.33-51.98,49.33s-50.58-21.85-51.57-49.07l-14.39,10.12c.41,2.82,2.52,15.58,8.62,25.13l.4.63-28.56,31.32-.71-.61c-.34-.29-8.32-7.17-14.96-21.79-6.11-13.45-12.14-36.24-6.15-68.49l.1-.52,34.88-14.42.12,1.3c.96,10.12,2.83,28.91,3.7,34.68l18.84-13.51c6.66-20.94,27.04-35.54,49.69-35.54s41.97,13.67,49.18,34.01c.2.55.54,1.01.99,1.33l19.13,12.89c1.09-7.03,3.67-33.57,3.7-33.86l.13-1.3,34.87,14.41.1.52c5.99,32.24-.04,55.04-6.15,68.49-6.65,14.63-14.63,21.51-14.96,21.79l-.71.61ZM329.39,218.8l26.27,28.82c4.55-4.44,29.94-32.08,19.88-87.29l-31.49-13.01c-.6,6.1-3.08,31.04-3.88,34.23l-.33,1.34-21.5-14.49c-.82-.57-1.41-1.35-1.74-2.29-6.94-19.57-25.97-32.72-47.35-32.72s-41.64,14.18-47.94,34.49l-.1.31-21.77,15.61-.35-1.38c-.8-3.2-3.29-28.9-3.88-35.11l-31.48,13.01c-10.06,55.21,15.33,82.86,19.88,87.29l26.27-28.82c-6.79-11.04-8.53-25.27-8.6-25.88l-.07-.57,18.37-12.91v1.86c0,27.01,22.28,48.98,49.66,48.98s50.05-21.73,50.05-48.45v-.32l1.13-1.55,17.62,12.38-.07.57c-.07.61-1.81,14.84-8.6,25.88ZM269.25,224.75c-24.21,0-43.91-19.34-43.91-43.11s19.7-43.11,43.91-43.11,43.91,19.34,43.91,43.11-19.7,43.11-43.91,43.11ZM269.25,140.47c-23.15,0-41.98,18.47-41.98,41.17s18.83,41.17,41.98,41.17,41.98-18.47,41.98-41.17-18.83-41.17-41.98-41.17Z"/>
  </g>
  <polygon class="st1" points="219.95 258.06 222.82 270.23 244.72 265.36 213.31 277.09 214.86 281.62 253.57 263.81 219.95 258.06"/>
  <polygon class="st1" points="315.62 258.06 312.74 270.23 290.84 265.36 322.25 277.09 320.7 281.62 281.99 263.81 315.62 258.06"/>
  <polygon class="st1" points="213.31 295 269.25 268.68 326.12 295 307.1 344.77 269.55 360.92 231.23 345.44 213.31 295"/>
  <g>
    <path class="st0" d="M248.63,216.32c-6.93-4.35-11.91-12.11-11.91-21.66,0-5.97,1.84-11.45,4.9-15.8,1.05-1.5,2.26-2.85,3.58-4.05,3.33,4.15,8.45,6.81,14.19,6.81.17,0,.33,0,.49-.02,5.54-.14,10.46-2.76,13.69-6.79,2.53-3.13,4.04-7.1,4.04-11.42,0-1.1-.1-2.18-.29-3.22-1.51-8.53-8.97-15-17.93-15-1.21,0-2.39.11-3.54.34,2.86-1.13,5.98-1.74,9.24-1.74,10.45,0,19.43,6.34,23.3,15.39.77,1.77,1.34,3.64,1.67,5.59-6.62,1.54-11.86,6.7-13.5,13.28-.36,1.42-.55,2.92-.55,4.45,0,3.08.76,5.99,2.12,8.53,1,1.89,2.33,3.58,3.91,5h0c3.23,2.92,7.51,4.69,12.2,4.69,5.95,0,11.22-2.85,14.54-7.25-3.63,9.56-12.86,16.36-23.68,16.36-2.39,0-4.7-.33-6.89-.95-.5-.13-.98-.29-1.46-.46.78-2.03,1.21-4.24,1.21-6.54,0-3.43-.95-6.65-2.6-9.39-3.19-5.29-8.98-8.83-15.6-8.83h-.02c-4.48,0-8.59,1.62-11.76,4.32-3.95,3.33-6.46,8.33-6.46,13.9,0,5.89,2.79,11.12,7.12,14.45h0Z"/>
    <path class="st4" d="M248.37,216.73c-7.6-4.77-12.13-13.02-12.13-22.07,0-5.89,1.73-11.45,4.99-16.07,1.06-1.51,2.29-2.9,3.65-4.13l.38-.34.32.4c3.38,4.21,8.41,6.63,13.82,6.63.15,0,.3,0,.44-.01,5.25-.13,10.11-2.54,13.37-6.61,2.54-3.13,3.93-7.08,3.93-11.11,0-1.07-.09-2.13-.28-3.13-1.5-8.46-8.84-14.6-17.46-14.6-1.17,0-2.33.11-3.44.33l-.27-.93c2.99-1.18,6.16-1.78,9.42-1.78,10.35,0,19.67,6.16,23.75,15.69.8,1.83,1.37,3.75,1.7,5.7l.08.45-.44.1c-6.39,1.49-11.55,6.56-13.14,12.93-.36,1.41-.54,2.86-.54,4.33,0,2.91.71,5.78,2.06,8.3.96,1.83,2.24,3.47,3.8,4.87l.16.15c3.25,2.85,7.4,4.42,11.71,4.42,5.61,0,10.77-2.57,14.16-7.06l2.04-2.7-1.2,3.17c-3.79,9.97-13.49,16.67-24.14,16.67-2.39,0-4.75-.33-7.02-.97-.46-.12-.95-.28-1.5-.48l-.46-.17.18-.46c.78-2.03,1.18-4.18,1.18-6.37,0-3.22-.88-6.38-2.53-9.14-3.24-5.38-8.92-8.59-15.19-8.6-4.21,0-8.28,1.49-11.46,4.2-4,3.37-6.29,8.3-6.29,13.54,0,5.55,2.52,10.67,6.93,14.06l-.55.79ZM245.16,175.52c-1.16,1.09-2.22,2.31-3.14,3.62-3.15,4.46-4.82,9.83-4.82,15.52,0,6.44,2.38,12.46,6.58,17.02-1.79-2.9-2.76-6.27-2.76-9.8,0-5.52,2.42-10.72,6.63-14.27,3.36-2.86,7.65-4.43,12.07-4.43,6.63,0,12.62,3.4,16.04,9.07,1.75,2.91,2.67,6.24,2.67,9.64,0,2.14-.36,4.24-1.07,6.25.34.11.66.21.96.29,2.2.62,4.47.94,6.77.94,9.2,0,17.66-5.19,21.94-13.2-3.44,3.25-7.96,5.06-12.79,5.06s-9.08-1.71-12.52-4.81l-.16-.15c-1.57-1.45-2.86-3.12-3.85-4.99-1.42-2.66-2.17-5.69-2.17-8.75,0-1.55.19-3.08.57-4.57,1.64-6.56,6.88-11.83,13.41-13.53-.33-1.72-.85-3.42-1.56-5.04-3.92-9.18-12.89-15.1-22.86-15.1-1.62,0-3.21.15-4.77.46,8.67.43,15.94,6.76,17.47,15.38.2,1.06.3,2.18.3,3.31,0,4.26-1.47,8.42-4.14,11.72-3.44,4.29-8.56,6.83-14.06,6.97-.13.02-.32.02-.5.02-5.52,0-10.69-2.4-14.24-6.59Z"/>
  </g>
</svg>